<svg width="48" height="48" viewBox="0 0 48 48" fill="none" xmlns="http://www.w3.org/2000/svg">
<rect width="48" height="48" fill="#171717"/>
<path d="M34.1881 12.4431C33.6209 11.0118 32.2245 10 30.591 10H16.3235C14.1864 10 12.4536 11.7328 12.4536 13.8699V32.7891C12.4536 33.8742 12.9 34.8547 13.6192 35.5569C14.1873 36.9882 15.5846 38 17.2181 38H31.4856C33.6227 38 35.3546 36.2681 35.3546 34.131V15.2118C35.3546 14.1266 34.9082 13.1453 34.1881 12.4431ZM32.2236 32.7891C32.2236 33.6891 31.4909 34.4217 30.591 34.4217H16.3235C16.0596 34.4217 15.81 34.3591 15.5891 34.2464C15.0559 33.978 14.69 33.4252 14.69 32.7891V13.8699C14.69 12.9691 15.4227 12.2364 16.3235 12.2364H30.591C31.4516 12.2364 32.1592 12.9065 32.2191 13.7536C32.2218 13.7921 32.2236 13.8305 32.2236 13.8699V32.7891Z" fill="#F9F9F9"/>
<path d="M22.4667 14.4646L21.3549 14.6607C21.0537 14.7138 20.8526 15.001 20.9057 15.3022L23.8047 31.743C23.8578 32.0442 24.145 32.2453 24.4462 32.1921L25.558 31.9961C25.8591 31.943 26.0602 31.6558 26.0071 31.3546L23.1082 14.9138C23.0551 14.6126 22.7679 14.4115 22.4667 14.4646Z" fill="#F9F9F9"/>
</svg>
  