<svg width="206" height="56" viewBox="0 0 206 56" fill="none" xmlns="http://www.w3.org/2000/svg">
<path d="M53.5974 54.7728C53.5974 54.6129 53.5479 54.5126 53.4874 54.5501C53.4269 54.5876 53.3019 54.4372 53.2096 54.2158C53.1122 53.9824 52.9621 53.8134 52.852 53.8134C52.702 53.8134 52.6899 53.78 52.7942 53.654C52.8957 53.5315 52.8923 53.4831 52.7798 53.4452C52.6645 53.4063 52.6695 53.3515 52.8034 53.1883C52.933 53.0302 52.9398 52.9695 52.8317 52.9331C52.7538 52.9068 52.69 52.8353 52.69 52.7743C52.69 52.7133 52.7404 52.6947 52.8021 52.7329C52.8664 52.7727 52.8854 52.7271 52.8467 52.6259C52.8095 52.5289 52.8374 52.4495 52.9087 52.4495C53.0031 52.4495 53.0053 52.3879 52.9168 52.2222C52.8193 52.0396 52.8305 51.9949 52.974 51.9949C53.1183 51.9949 53.1253 51.9657 53.0106 51.8425C52.8637 51.685 52.5785 51.8259 52.6157 52.0375C52.6253 52.0922 52.5734 52.1591 52.5004 52.1861C52.413 52.2184 52.39 52.1491 52.4332 51.9836C52.4693 51.8453 52.4525 51.7592 52.3959 51.7924C52.3393 51.8256 52.1909 51.8152 52.0661 51.7692C51.8862 51.7029 51.939 51.6685 52.3213 51.6029C52.6219 51.5514 52.8034 51.4599 52.8034 51.3598C52.8034 51.2715 52.9026 51.1993 53.0238 51.1993C53.145 51.1993 53.314 51.0994 53.3994 50.9773C53.5524 50.7584 54.1301 50.4597 54.3174 50.5027C54.3703 50.5149 54.7021 50.4518 55.0547 50.3627C55.4073 50.2735 56.0149 50.1645 56.4049 50.1205C56.7949 50.0764 57.1425 49.9942 57.1772 49.9379C57.212 49.8815 57.3523 49.8342 57.489 49.8328C57.6256 49.8314 58.0437 49.6791 58.418 49.4944C58.7924 49.3097 59.1849 49.1574 59.2904 49.156C59.3959 49.1545 59.5138 49.1023 59.5523 49.0398C59.5909 48.9773 59.5648 48.9261 59.4944 48.9261C59.3372 48.9261 59.3939 48.4178 59.5523 48.4068C59.6147 48.4024 59.8895 48.3347 60.1631 48.2562C60.4366 48.1777 60.7849 48.1449 60.9371 48.1831C61.0894 48.2214 61.376 48.2027 61.5741 48.1414C61.7722 48.0802 62.2191 47.9743 62.5672 47.906C63.5226 47.7187 64.0327 47.5622 64.0327 47.4564C64.0327 47.3469 58.214 47.4233 56.7733 47.5518C56.0143 47.6195 55.7247 47.601 55.4122 47.4648C55.1939 47.3697 54.9897 47.2845 54.9585 47.2754C54.9273 47.2664 54.7526 47.1973 54.5703 47.1218C54.388 47.0464 54.1583 47.0161 54.0599 47.0545C53.9615 47.0929 52.4517 47.1426 50.705 47.1651C48.9582 47.1875 47.2993 47.2568 47.0186 47.3191C46.7378 47.3813 45.8965 47.4916 45.149 47.5642C44.4015 47.6368 43.6922 47.7485 43.5728 47.8125C43.4535 47.8766 43.1065 47.9049 42.8018 47.8756C42.4971 47.8463 42.2203 47.8669 42.1866 47.9214C42.153 47.9759 42.078 47.9911 42.0199 47.9552C41.9618 47.9192 41.9143 47.9439 41.9143 48.0101C41.9143 48.0763 41.876 48.1204 41.8292 48.108C41.6406 48.0579 40.6666 48.2647 40.6666 48.3548C40.6666 48.4657 39.8098 48.6501 39.4858 48.6089C39.3666 48.5938 39.1732 48.6845 39.056 48.8106C38.9388 48.9366 38.7556 49.0458 38.6488 49.0532C38.5421 49.0606 38.1485 49.0777 37.7742 49.0911C37.3999 49.1046 36.8895 49.1747 36.6399 49.2469C36.3904 49.319 35.9934 49.4068 35.7577 49.442C35.522 49.4771 35.3569 49.5508 35.3907 49.6056C35.4963 49.7768 35.2442 49.8217 33.2735 49.9822C33.1688 49.9908 33.0923 50.0462 33.1034 50.1054C33.1145 50.1646 33.0216 50.2432 32.8968 50.28C32.772 50.3168 32.5411 50.4347 32.3836 50.5421C32.1775 50.6825 31.748 50.7578 30.8523 50.8104C30.1676 50.8506 29.4894 50.8781 29.3452 50.8716C29.201 50.8651 28.9263 50.9409 28.7347 51.0402C28.5368 51.1428 28.3561 51.1757 28.3163 51.1165C28.2186 50.9711 27.8193 50.8315 27.9068 50.9733C27.999 51.1228 27.8886 51.1151 27.5866 50.9511C26.977 50.62 24.0913 50.8716 23.7903 51.2821C23.6971 51.4092 23.6869 51.4949 23.7619 51.52C23.8265 51.5416 23.8793 51.6045 23.8793 51.6598C23.8793 51.7152 23.8079 51.733 23.7206 51.6994C23.6334 51.6659 23.5283 51.6931 23.4871 51.7598C23.3771 51.9382 24.0569 51.9123 24.4237 51.7242C24.5922 51.6378 24.9597 51.5295 25.2404 51.4835C25.5212 51.4375 25.8402 51.3832 25.9494 51.3629C26.0585 51.3426 26.1479 51.393 26.1479 51.4749C26.1479 51.5802 26.2889 51.6127 26.6299 51.5859C27.0026 51.5567 27.0664 51.5746 26.9111 51.6648C26.8006 51.729 26.7358 51.823 26.767 51.8736C26.8343 51.9827 26.2001 52.0925 24.9724 52.1842C24.283 52.2357 24.058 52.2153 23.9816 52.0945C23.9099 51.981 23.8823 51.9771 23.881 52.0802C23.8785 52.2894 23.1967 52.2556 22.9524 52.0341C22.8384 51.9307 22.745 51.8944 22.745 51.9535C22.745 52.0188 22.3768 52.0303 21.8092 51.9829C21.2946 51.94 20.4906 51.8766 20.0228 51.8422C19.5549 51.8077 19.0044 51.7201 18.7995 51.6474C18.5945 51.5748 18.2998 51.5396 18.1445 51.5694C17.9893 51.5991 17.83 51.5712 17.7907 51.5075C17.7467 51.4362 17.7764 51.4269 17.8676 51.4834C17.96 51.5406 17.9886 51.5308 17.9433 51.4573C17.8578 51.3188 17.3169 51.1934 16.6766 51.1636C16.299 51.146 16.2209 51.1015 16.2106 50.8983C16.1996 50.68 16.2778 50.6448 16.9479 50.567C17.3602 50.5191 17.8251 50.491 17.9811 50.5045L18.2646 50.5291L17.9637 50.3652C17.4418 50.0809 16.9329 49.961 15.9394 49.888C15.4091 49.8491 14.6434 49.7338 14.2379 49.6317C13.3053 49.3968 10.0691 49.3788 9.92794 49.6077C9.87937 49.6864 9.77958 49.7137 9.7062 49.6682C9.51669 49.5509 7.42933 49.5114 7.50034 49.6265C7.56675 49.7342 7.54985 49.736 6.06603 49.7811C5.01876 49.813 4.57671 49.8518 3.0086 50.0497C2.29357 50.1399 1.87552 50.0882 1.46685 49.8591C1.29571 49.7631 1.3326 49.7085 1.74476 49.4478C2.0772 49.2375 2.48333 49.1138 3.09637 49.0362C4.14254 48.9037 5.14071 48.7367 5.85987 48.574C6.29004 48.4767 6.37584 48.4165 6.33076 48.2438C6.29841 48.1198 6.21 48.0578 6.11668 48.0937C6.02925 48.1273 5.95772 48.0982 5.95772 48.029C5.95772 47.9598 6.04704 47.9024 6.15621 47.9015C6.32585 47.9 6.32997 47.8837 6.18457 47.7895C6.07697 47.7199 6.06524 47.6787 6.15266 47.6776C6.22889 47.6766 6.2615 47.5992 6.22535 47.5048C6.17975 47.3857 6.29292 47.2744 6.59755 47.1387L7.03528 46.9438L5.92702 46.8753C5.31748 46.8376 4.51356 46.8119 4.14054 46.8183C3.76751 46.8246 3.46231 46.8234 3.46231 46.8156C3.46231 46.8078 3.56439 46.6834 3.68916 46.5393C3.81393 46.3951 3.91602 46.3118 3.91602 46.354C3.91602 46.3963 4.03096 46.3555 4.17144 46.2632C4.31193 46.1709 4.80526 46.0366 5.26775 45.9647C5.73023 45.8928 6.31078 45.7625 6.55786 45.6752C6.80493 45.5878 7.19208 45.5145 7.41818 45.5123C8.04987 45.5061 9.64107 45.0915 9.18096 45.053C9.12377 45.0482 8.97489 45.0208 8.85012 44.992C8.72535 44.9633 8.56094 44.926 8.48477 44.9093C8.22525 44.8523 8.20868 44.7417 8.44824 44.6655C8.57972 44.6237 8.82071 44.4655 8.98377 44.3141C9.14683 44.1627 9.39415 44.0388 9.53337 44.0388C9.67258 44.0388 9.84471 43.9685 9.91589 43.8826C10.0222 43.7542 9.92871 43.713 9.39099 43.6516C9.03113 43.6106 8.58357 43.5522 8.39641 43.5219C7.95116 43.4499 6.17939 43.4603 6.05769 43.5357C5.89352 43.6373 4.59658 43.6853 4.59658 43.5897C4.59658 43.5394 4.67315 43.4347 4.76673 43.3568C4.8603 43.279 4.93687 43.1619 4.93687 43.0967C4.93687 43.0314 4.90328 43.0116 4.86223 43.0528C4.82118 43.0939 4.7191 43.0706 4.63538 43.001C4.55109 42.9309 4.48316 42.9229 4.48316 42.983C4.48316 43.0428 4.40659 43.0916 4.31301 43.0916C4.0406 43.0916 4.11533 42.9699 4.48967 42.8039C4.91065 42.6172 4.85036 42.5388 4.17169 42.3907C3.55258 42.2556 3.43456 42.0439 3.87844 41.8646C4.33781 41.6791 6.49605 41.4383 7.72981 41.4349C8.30811 41.4333 8.91666 41.398 9.08216 41.3564L9.38306 41.2807L9.05988 41.0158C8.88213 40.8701 8.65039 40.749 8.54489 40.7468C8.27603 40.7411 8.19431 40.5603 8.33853 40.2902C8.49081 40.0051 9.47747 39.4924 9.8739 39.4924C10.041 39.4924 10.1377 39.4434 10.0978 39.3788C10.0593 39.3163 9.93412 39.2651 9.8197 39.2651C9.62753 39.2651 9.41387 38.9814 9.45597 38.7821C9.49877 38.5795 7.6991 38.8061 7.5485 39.0222C7.43347 39.1873 4.53703 39.6187 4.25229 39.5132L3.98114 39.4127L4.2449 39.2712C4.38996 39.1934 5.33236 38.9922 6.33911 38.824C8.18134 38.5163 8.62969 38.299 7.42253 38.299C7.05161 38.299 6.71038 38.2341 6.59945 38.1424C6.44189 38.0122 6.22373 38.0086 5.30477 38.1211C3.61501 38.3279 2.63298 38.4699 2.40268 38.5408C2.25009 38.5878 2.20421 38.5541 2.23253 38.4159C2.27381 38.2145 2.62474 37.9781 3.17489 37.7812C3.64844 37.6118 3.35408 37.4624 2.7486 37.5649C2.48609 37.6093 2.04162 37.6817 1.76089 37.7257L1.25047 37.8058L1.67582 37.3973C1.90977 37.1727 2.10117 36.9706 2.10117 36.9483C2.10117 36.9259 1.78466 36.8718 1.39781 36.8279C0.483138 36.7242 -0.00627546 36.4673 6.07562e-05 36.0941C0.00338912 35.8973 0.737185 35.6333 1.41996 35.5832C1.70105 35.5626 2.33937 35.4645 2.83845 35.3652C3.33754 35.2659 4.10324 35.1616 4.54001 35.1335C4.97678 35.1053 5.64033 35.0284 6.01457 34.9626C8.33877 34.5536 8.86188 34.453 8.96206 34.3954C9.02362 34.3601 8.84497 34.2752 8.56506 34.207C8.28338 34.1382 8.05613 34.0161 8.05613 33.9335C8.05613 33.7423 9.19936 33.3268 10.2369 33.141C10.7417 33.0506 11.1151 32.9161 11.2374 32.7808C11.3468 32.6596 11.7265 32.5068 12.1022 32.4327C12.9545 32.2647 12.9315 32.1053 12.0054 31.7624C11.8068 31.6889 11.6674 31.5696 11.6955 31.4973C11.7595 31.3327 12.2852 31.0817 12.5658 31.0817C12.6818 31.0817 12.7452 31.0306 12.7067 30.968C12.6681 30.9055 12.2568 30.8544 11.7926 30.8544C11.0277 30.8544 10.7206 30.7382 11.0903 30.5887C11.4207 30.4551 9.76534 30.5274 8.94773 30.6823C7.92955 30.8751 7.37556 30.7944 7.37556 30.4532C7.37556 30.2959 7.67184 30.0894 8.48892 29.6771C9.25864 29.2887 9.55623 29.0855 9.45306 29.0187C9.2571 28.8919 9.45051 28.7623 10.2113 28.5105C11.2851 28.1551 12.1369 27.5594 12.0251 27.2421C11.9487 27.0253 12.3672 26.9071 14.0963 26.657C14.9558 26.5327 15.8165 26.3523 16.0091 26.256C16.2016 26.1598 16.6092 26.051 16.9149 26.0143C17.7577 25.9131 19.3704 25.5043 19.6226 25.3279C19.7457 25.2418 20.0009 25.1678 20.1898 25.1635C20.3786 25.1591 20.6353 25.1115 20.76 25.0578C20.9407 24.98 20.8945 24.9567 20.5332 24.9434C19.5664 24.9077 19.0533 24.8122 18.9252 24.644C18.8377 24.5292 18.701 24.4939 18.5282 24.5414C18.3014 24.6039 18.2926 24.5964 18.4652 24.4881C18.5755 24.4189 18.7541 24.3768 18.8622 24.3946C18.9702 24.4124 19.1273 24.3839 19.2112 24.3312C19.3015 24.2745 19.4781 24.2966 19.6436 24.3854C19.8616 24.5023 19.9707 24.5058 20.1379 24.4011C20.2737 24.3162 20.3777 24.3077 20.4212 24.3782C20.459 24.4394 20.7803 24.4913 21.1354 24.4935C21.4904 24.4957 21.9085 24.5707 22.0645 24.66C22.4042 24.8546 22.5182 24.8689 22.5182 24.7168C22.5182 24.6543 22.4386 24.6032 22.3413 24.6032C22.2441 24.6032 22.1925 24.5578 22.2266 24.5024C22.2608 24.447 22.1819 24.3737 22.0512 24.3394C21.9206 24.3052 21.8359 24.2099 21.863 24.1276C21.913 23.9758 22.4211 23.8869 23.9927 23.7548C25.4126 23.6354 25.8076 23.5712 25.8076 23.4596C25.8076 23.4009 25.731 23.3529 25.6374 23.3529C25.5429 23.3529 25.4673 23.2519 25.4673 23.1256C25.4673 22.9589 25.5429 22.8983 25.7509 22.8983C26.0771 22.8983 26.1328 22.7233 25.8316 22.6443C25.72 22.6151 25.1458 22.6185 24.5555 22.6519C22.8364 22.7491 22.1487 22.7167 21.789 22.5217C21.6063 22.4227 21.4242 22.3619 21.3842 22.3866C21.3442 22.4114 21.3326 22.2877 21.3584 22.1117C21.4146 21.7277 21.2551 21.6678 20.0904 21.6357C19.3934 21.6165 19.3393 21.5992 19.5816 21.4734C19.9801 21.2665 21.4419 20.9695 22.3136 20.9183C22.7592 20.8922 23.18 20.7989 23.3314 20.6926C23.6536 20.4664 23.8478 20.4636 24.0656 20.6819C24.1636 20.7801 24.4368 20.8514 24.7098 20.85C25.5504 20.8456 28.6871 20.526 29.113 20.4012C29.5106 20.2848 29.5227 20.266 29.4388 19.8932C29.3859 19.6583 29.3978 19.4598 29.4691 19.3884C29.55 19.3074 29.5465 19.2226 29.4578 19.1155C29.1869 18.7884 29.5316 18.7206 31.1869 18.7758C32.4731 18.8186 32.8743 18.7952 33.1353 18.6618C33.4114 18.5207 34.6563 18.3261 35.5056 18.2912C35.6304 18.2861 35.9877 18.2362 36.2996 18.1803L36.8668 18.0787L36.3564 17.996C36.0756 17.9505 35.2334 17.9394 34.4848 17.9713C33.7362 18.0032 32.6643 18.0225 32.1028 18.0142C31.5413 18.0058 30.4439 18.0823 29.6641 18.1842C28.1211 18.3856 26.5299 18.5266 25.8449 18.5224C25.606 18.521 25.3785 18.5645 25.3393 18.6191C25.3001 18.6736 25.1087 18.7248 24.914 18.7328C24.7192 18.7408 24.5599 18.7897 24.5599 18.8414C24.5599 18.8932 24.445 18.9032 24.3047 18.8636C24.1049 18.8073 24.0864 18.8176 24.2196 18.911C24.3663 19.0139 24.3623 19.0306 24.1912 19.0321C24.0821 19.0332 23.9927 19.0909 23.9927 19.1606C23.9927 19.2384 23.8849 19.2165 23.7132 19.1038C23.4027 18.8999 23.2665 18.8679 23.3609 19.0209C23.3951 19.0764 23.3215 19.1483 23.1975 19.1808C23.0684 19.2146 22.9719 19.1837 22.9718 19.1085C22.9718 19.0324 22.7927 18.977 22.5465 18.977C22.2762 18.977 22.1308 19.0268 22.1477 19.1137C22.166 19.2077 22.0438 19.2336 21.7557 19.1966C21.2835 19.136 20.8176 18.8712 20.815 18.6619C20.8138 18.5724 20.7739 18.5835 20.7033 18.6929C20.618 18.8252 20.593 18.7917 20.5916 18.5433C20.5894 18.1334 20.7763 17.7836 20.9976 17.7836C21.0926 17.7836 21.1389 17.7325 21.1003 17.67C21.0618 17.6075 21.1226 17.5524 21.2354 17.5476C21.6092 17.5318 21.8466 17.4629 22.0993 17.297C22.3259 17.1482 22.8584 17.2054 22.8584 17.3786C22.8584 17.4099 22.7901 17.4092 22.7065 17.3769C22.6229 17.3448 22.4825 17.4074 22.3946 17.516C22.2567 17.6862 22.2569 17.7 22.3958 17.6162C22.5197 17.5414 22.5384 17.567 22.477 17.7273C22.4293 17.8521 22.4557 17.973 22.5428 18.0284C22.7598 18.1664 22.9425 18.1404 22.7452 17.9997C22.6171 17.9084 22.6828 17.8934 23.0106 17.9391C23.2516 17.9727 23.539 17.9419 23.6537 17.8701C23.8106 17.7719 23.9014 17.7739 24.0271 17.8785C24.1611 17.9899 24.2102 17.9775 24.2812 17.8148C24.3296 17.7038 24.3611 17.5747 24.3511 17.5278C24.3412 17.4809 24.4054 17.4425 24.4938 17.4425C24.5822 17.4425 24.674 17.384 24.6978 17.3125C24.7215 17.241 24.8907 17.1665 25.0738 17.147C25.2568 17.1274 25.4636 17.0333 25.5333 16.9378C25.603 16.8423 25.7014 16.8017 25.7519 16.8476C25.8025 16.8935 25.8118 16.8416 25.7726 16.7322C25.6849 16.4873 25.9019 16.4644 25.9954 16.7087C26.0549 16.8639 26.0871 16.8618 26.2754 16.691C26.4765 16.5087 26.4884 16.51 26.49 16.7145C26.4914 16.8959 26.5096 16.9034 26.6017 16.7606C26.7656 16.5064 26.7422 16.451 26.4386 16.3747C26.2461 16.3263 26.1676 16.2325 26.1801 16.0659C26.2001 15.8004 26.5952 15.6019 27.0505 15.6287C27.4748 15.6537 27.8494 15.5075 27.8494 15.3168C27.8494 15.1941 27.9621 15.158 28.2748 15.1809C28.7319 15.2143 29.501 15.0864 29.7777 14.9309C29.9151 14.8537 29.9042 14.8336 29.721 14.8264C29.5962 14.8216 29.2389 14.7936 28.927 14.7643C27.9624 14.6737 26.6795 14.6766 26.2167 14.7704C25.8989 14.8347 25.7971 14.8239 25.8539 14.7318C25.9027 14.6527 25.872 14.6271 25.7737 14.6649C25.6804 14.7008 25.5298 14.5968 25.4101 14.4137C25.2639 14.1902 25.2447 14.0882 25.3426 14.0555C25.4345 14.0248 25.4123 13.957 25.2749 13.8491C25.0885 13.7025 25.1005 13.6936 25.4107 13.7476C25.5979 13.7802 25.6872 13.7767 25.6092 13.7398C25.3219 13.6041 25.4801 13.4645 25.9211 13.4645C26.2075 13.4645 26.3754 13.5169 26.3765 13.6065C26.3778 13.7111 26.404 13.7079 26.4758 13.5944C26.5371 13.4975 26.5998 13.4832 26.6446 13.5559C26.7208 13.6793 26.8652 13.6697 27.2197 13.5176C27.3413 13.4655 27.6085 13.4194 27.8136 13.4152C28.2837 13.4057 28.4363 13.1235 27.9714 13.1235C27.7875 13.1235 27.6185 13.0496 27.5815 12.953C27.5374 12.838 27.587 12.7825 27.7339 12.7825C27.8536 12.7825 27.9923 12.7186 28.0422 12.6404C28.1723 12.4367 28.6346 12.1954 28.7536 12.2691C28.8091 12.3035 28.8866 12.2796 28.9258 12.2161C28.965 12.1526 29.1379 12.1006 29.31 12.1006C29.4822 12.1006 29.9003 12.0175 30.2391 11.916C30.774 11.7558 30.822 11.7189 30.6035 11.6368C30.4651 11.5848 29.518 11.5492 28.4989 11.5576C27.4797 11.5662 26.5792 11.5318 26.4977 11.4813C26.4132 11.429 26.316 11.4437 26.2718 11.5153C26.1807 11.6631 22.6547 11.7751 22.567 11.633C22.5362 11.5831 22.4318 11.5727 22.335 11.6099C22.2158 11.6557 22.2001 11.703 22.2864 11.7565C22.3564 11.7999 22.2586 11.8354 22.069 11.8354C21.8794 11.8354 21.7243 11.7865 21.7243 11.7267C21.7243 11.667 21.6465 11.6828 21.5514 11.7619C21.4563 11.8409 21.3422 11.8693 21.2979 11.8248C21.2535 11.7804 21.3441 11.6473 21.4991 11.529L21.781 11.314L21.4974 11.3687C21.2489 11.4165 21.2419 11.4099 21.4407 11.3153C21.7678 11.1595 22.3054 11.1757 22.6206 11.3507C22.9277 11.5212 23.3123 11.465 23.3123 11.2496C23.3123 11.1503 23.5362 11.1057 24.0495 11.1028C24.5121 11.1002 24.7868 11.1452 24.7868 11.2235C24.7868 11.2922 24.8506 11.2646 24.9286 11.1622C25.031 11.0276 25.3381 10.9557 26.0345 10.903C26.5648 10.8629 27.3208 10.7579 27.7146 10.6697C28.1084 10.5815 28.5933 10.5044 28.7922 10.4984C28.9911 10.4924 29.409 10.4177 29.7209 10.3323C30.2527 10.1868 30.1927 10.181 28.7568 10.2391C27.9146 10.2732 27.149 10.302 27.0554 10.303C26.9618 10.304 25.7878 10.4248 24.4465 10.5713C23.1053 10.7178 21.643 10.8533 21.197 10.8724C20.751 10.8915 20.4095 10.9455 20.438 10.9924C20.4666 11.0393 20.27 11.0778 20.0012 11.0781C19.7324 11.0781 19.053 11.1527 18.4916 11.2432C17.5288 11.3985 15.264 11.5586 15.5715 11.4497C15.6499 11.4219 15.6852 11.3524 15.6499 11.2952C15.6146 11.2381 15.7292 11.1888 15.9044 11.1858C16.0796 11.1829 16.4017 11.0833 16.62 10.9647C16.8384 10.8461 17.1191 10.7013 17.2439 10.643C17.654 10.4514 24.3438 9.34244 25.9211 9.20462C26.389 9.16373 27.7416 9.02896 28.9269 8.90514C30.1123 8.78132 31.6767 8.63038 32.4035 8.56973C33.1304 8.50905 33.9706 8.38536 34.2708 8.29484C34.6651 8.17593 34.8383 8.16544 34.8948 8.25706C34.9664 8.37322 36.1598 8.34141 37.6042 8.18486C37.8225 8.16118 38.5116 8.10987 39.1354 8.07081C40.2548 8.00074 41.9603 7.76497 42.915 7.54834C43.1845 7.48717 43.4529 7.46671 43.5112 7.50287C43.5696 7.53903 44.3599 7.45591 45.2674 7.31816C46.6101 7.11434 46.9657 7.09361 47.177 7.2069C47.3894 7.3208 47.6614 7.30168 48.6738 7.10176C50.3591 6.76896 52.5583 6.33631 53.6542 6.12194C54.1533 6.02431 54.8783 5.87189 55.2655 5.78323C55.6526 5.69457 56.1375 5.62228 56.343 5.62258C56.5486 5.62258 56.9464 5.5495 57.2272 5.45947C57.7003 5.30775 58.6689 5.13932 61.2538 4.75934C62.5818 4.56413 62.8493 4.51907 64.203 4.26267C64.8268 4.1445 65.8477 3.96341 66.4715 3.86023C67.0954 3.75705 67.7589 3.64727 67.9461 3.61627C69.2705 3.39694 69.5227 3.40102 69.7861 3.64603C69.9282 3.77822 70.0445 3.94445 70.0445 4.01542C70.0445 4.08639 70.0828 4.1384 70.1296 4.131C70.1763 4.12367 70.3313 4.12367 70.4738 4.131C70.6906 4.14224 70.7145 4.17923 70.6196 4.35683C70.4807 4.61682 70.5918 4.75705 70.7997 4.58419C71.0336 4.3897 70.9803 4.56464 70.7112 4.87473C70.5701 5.03739 70.2866 5.18323 70.0257 5.22739C69.6449 5.29187 69.6014 5.32742 69.7234 5.47466C69.9064 5.69567 69.7518 5.70938 77.0203 4.82811C77.5194 4.7676 78.4126 4.69356 79.0053 4.66359C79.5979 4.63361 80.6698 4.55525 81.3873 4.48944C82.1047 4.42365 83.049 4.34955 83.4857 4.32478C83.9224 4.30003 84.4815 4.22677 84.7282 4.162C84.9749 4.09725 85.9536 4.04111 86.9031 4.03727C87.8526 4.03344 88.6971 4.00749 88.7798 3.97962C88.9839 3.91087 91.6419 3.77135 92.2744 3.79618C92.554 3.8072 92.8609 3.88693 92.9563 3.97344C93.1701 4.16729 93.7145 4.18672 96.2463 4.09089C97.4101 4.04682 98.4789 3.94664 98.8298 3.84871C99.2878 3.72092 100.047 3.68594 102.063 3.69983C103.511 3.70988 105.922 3.67939 107.419 3.63223C110.453 3.53664 110.291 3.53556 113.431 3.67213C115.463 3.76055 116.636 3.76422 118.421 3.68776C118.733 3.6744 118.899 3.64007 118.79 3.61148C118.681 3.5829 118.592 3.50604 118.592 3.44069C118.592 3.36232 118.91 3.34442 119.527 3.3881C120.042 3.42451 121.586 3.50614 122.959 3.56949C124.331 3.63285 126.092 3.73715 126.872 3.80128C130.005 4.05892 131.2 4.14973 132.827 4.25381C136.896 4.51414 139.041 4.61787 141.277 4.66244C142.306 4.68296 143.583 4.7346 144.113 4.77718C144.643 4.81978 145.434 4.85003 145.871 4.84442C146.308 4.83891 147.175 4.88452 147.799 4.94601C148.423 5.00751 150.444 5.08033 152.289 5.10786C154.135 5.1354 155.87 5.20777 156.146 5.2687C156.421 5.32963 157.048 5.40719 157.538 5.44105C158.028 5.4749 158.589 5.52891 158.785 5.56107C159.456 5.67103 160.503 5.7458 162.034 5.79305C163.383 5.83466 164.693 5.93454 166.628 6.14325C166.94 6.17688 167.374 6.21867 167.592 6.23611C167.811 6.25357 168.372 6.30066 168.84 6.34079C169.308 6.38092 170.099 6.44503 170.598 6.48328C171.097 6.52151 171.531 6.56856 171.562 6.58782C171.593 6.60709 171.909 6.65373 172.264 6.69154C172.619 6.72932 172.984 6.789 173.075 6.82414C173.167 6.85927 173.693 6.90325 174.245 6.92188C175.761 6.97302 175.759 6.97271 175.759 7.15642C175.759 7.25019 175.813 7.3269 175.879 7.3269C175.945 7.3269 175.962 7.26707 175.917 7.19394C175.861 7.10326 175.898 7.08518 176.033 7.1371C176.142 7.17899 176.344 7.21325 176.482 7.21325C176.65 7.21325 176.737 7.28714 176.749 7.44057C176.769 7.71227 176.708 7.72531 176.48 7.49739C176.243 7.25949 175.977 7.27733 176.057 7.52581C176.096 7.6482 176.084 7.67585 176.025 7.59769C175.96 7.51113 175.64 7.49488 175.022 7.54668C173.957 7.63583 173.154 7.61129 171.676 7.44449C171.083 7.37761 170.317 7.2954 169.974 7.26177C169.631 7.22817 169.291 7.18116 169.218 7.1573C169.145 7.13345 169.056 7.19151 169.02 7.2863C168.971 7.41397 168.863 7.43873 168.604 7.3818C168.198 7.29237 167.937 7.25837 166.855 7.15403C166.418 7.11191 166.031 7.05863 165.993 7.03564C165.914 6.98666 164.397 6.9786 162.318 7.01615C160.999 7.03995 160.069 6.97489 159.375 6.81027C158.985 6.71752 156.25 6.67739 156.25 6.76442C156.25 6.80918 156.594 6.88274 157.015 6.92791C157.436 6.97308 157.883 7.0302 158.008 7.05486C158.883 7.22784 161.227 7.42171 163.112 7.47704C163.549 7.48986 163.96 7.53497 164.026 7.57729C164.136 7.64767 167.609 7.91906 167.795 7.87183C167.84 7.86056 168.259 7.88714 168.727 7.93088C169.45 7.99849 171.297 8.13454 171.761 8.15435C171.928 8.16149 171.948 8.30821 171.794 8.40346C171.684 8.47182 170.829 8.4876 170.055 8.43556C169.819 8.41966 169.584 8.33934 169.533 8.25706C169.465 8.14576 169.27 8.12718 168.772 8.18448C168.404 8.22684 168.069 8.28184 168.027 8.30671C167.985 8.33159 167.874 8.27435 167.779 8.17952C167.684 8.08471 167.58 8.05091 167.547 8.10445C167.483 8.20832 165.193 8.16408 164.53 8.04615C164.311 8.00734 163.927 7.96505 163.675 7.95216C163.422 7.93927 163.103 7.86823 162.966 7.7943C162.765 7.68683 162.715 7.69031 162.715 7.81166C162.715 7.90098 162.563 7.97567 162.346 7.99323C161.449 8.06574 160.194 8.05887 159.199 7.97599C158.483 7.91639 158.177 7.92384 158.288 7.99824C158.735 8.29823 157.896 8.44618 156.59 8.29773C155.432 8.16613 155.225 8.1592 154.724 8.23531C154.466 8.27459 154.104 8.26621 153.919 8.21669C153.434 8.08627 150.909 7.8553 149.784 7.83844C149.254 7.83049 148.488 7.789 148.083 7.74627C147.677 7.70354 146.861 7.64232 146.268 7.61023C145.675 7.57814 144.272 7.4767 143.149 7.38479C142.026 7.29288 140.355 7.1833 139.437 7.14131C137.94 7.07286 137.759 7.08457 137.695 7.25422C137.633 7.41557 137.436 7.44278 136.359 7.43866C135.664 7.43605 134.866 7.47531 134.585 7.52601L134.074 7.61822L134.925 7.74495C135.393 7.81465 135.955 7.87029 136.173 7.86857C136.391 7.86672 137.284 7.94466 138.158 8.04146C139.031 8.13826 140.69 8.27456 141.844 8.34436C142.998 8.41414 144.056 8.49572 144.195 8.52565C144.334 8.55557 145.482 8.62985 146.747 8.69069C149.02 8.80007 150.613 8.88933 151.826 8.9753C152.169 8.99962 153.346 9.07132 154.442 9.13464C155.537 9.19795 156.507 9.27252 156.597 9.30036C156.687 9.32819 156.862 9.38966 156.987 9.43693C157.112 9.48421 157.41 9.53708 157.65 9.55445C157.89 9.57182 158.145 9.6671 158.217 9.76622C158.322 9.90933 158.617 9.95248 159.653 9.97581C160.37 9.99197 161.008 10.0367 161.07 10.0751C161.133 10.1135 161.567 10.175 162.034 10.2117C164.271 10.387 166.507 10.5294 167.536 10.5621C168.159 10.5819 169.487 10.6874 170.485 10.7966C171.483 10.9057 172.759 11.012 173.32 11.0328C177.206 11.1764 180.31 11.3572 181.941 11.5351C182.502 11.5963 183.487 11.6793 184.128 11.7195C184.769 11.7597 185.321 11.8364 185.354 11.8898C185.387 11.9432 185.245 11.9911 185.039 11.9962C184.832 12.0013 184.519 12.0159 184.343 12.0287C184.167 12.0415 184.001 12.016 183.973 11.972C183.946 11.9281 183.736 11.9443 183.505 12.0081C183.271 12.0728 182.758 12.0909 182.343 12.049C181.935 12.0077 179.763 11.9539 177.517 11.9294C175.271 11.905 172.592 11.8519 171.562 11.8116C169.728 11.7396 169.208 11.7836 170.411 11.909C170.745 11.9438 171.043 11.997 171.073 12.0272C171.154 12.1083 170.739 12.3088 170.395 12.355C169.994 12.4088 169.868 12.5528 170.211 12.5651C170.361 12.5705 171.148 12.6226 171.959 12.6809C172.77 12.7392 174.365 12.817 175.504 12.854C177.376 12.9147 177.574 12.9402 177.574 13.1203C177.574 13.3703 178.031 13.4295 180.783 13.5357C181.892 13.5786 182.827 13.6568 182.859 13.7096C182.892 13.7623 183.142 13.8055 183.416 13.8055C184.347 13.8055 184.086 14.1193 182.941 14.375C182.618 14.4472 182.185 14.4968 181.977 14.4853C180.596 14.4086 180.958 14.6324 182.508 14.8131C183.132 14.8858 184 14.9701 184.436 15.0004C184.873 15.0307 185.664 15.1064 186.195 15.1687C186.725 15.231 187.797 15.3157 188.576 15.357C189.537 15.4077 190.031 15.48 190.108 15.5808C190.171 15.6634 190.575 15.7628 191.015 15.8038C191.452 15.8445 191.86 15.9402 191.923 16.0166C191.985 16.0929 192.409 16.1898 192.864 16.232C193.32 16.2742 193.807 16.3838 193.947 16.4756C194.107 16.5808 194.598 16.661 195.274 16.6926C196.731 16.7605 197.873 16.8886 197.936 16.9912C198.003 17.0991 197.01 17.2531 196.857 17.1586C196.794 17.1199 196.743 17.1366 196.743 17.1959C196.743 17.2551 196.922 17.3372 197.14 17.3782C197.571 17.4593 197.653 17.6007 197.339 17.7227C196.968 17.8666 197.487 18.0947 198.653 18.3004C199.632 18.4732 200.251 18.6868 199.8 18.6963C199.376 18.7052 200.031 18.9055 200.712 18.9754C201.117 19.0169 201.507 19.1001 201.58 19.1604C201.652 19.2207 202.034 19.3222 202.429 19.3858C203.525 19.5628 203.513 19.7049 202.395 19.793C201.977 19.8259 201.595 19.9234 201.48 20.0264C201.319 20.171 201.122 20.1883 200.403 20.121C198.94 19.9841 198.65 20.0108 198.431 20.3023C198.323 20.4451 198.258 20.5976 198.285 20.6413C198.312 20.685 198.678 20.7566 199.098 20.8004C199.519 20.8441 199.914 20.9201 199.976 20.9691C200.038 21.0182 200.332 21.0945 200.628 21.1387C201.441 21.26 201.275 21.4206 200.335 21.4206C199.878 21.4206 199.465 21.459 199.417 21.5059C199.37 21.5527 198.894 21.5911 198.36 21.5911C197.685 21.5911 197.374 21.6344 197.34 21.7332C197.307 21.8305 197.428 21.8754 197.726 21.8759C197.965 21.8761 198.34 21.9234 198.558 21.9808C198.776 22.0381 199.387 22.1174 199.915 22.1569C200.443 22.1965 200.933 22.2767 201.003 22.3352C201.074 22.3937 201.161 22.4118 201.197 22.3754C201.234 22.3389 201.382 22.3516 201.527 22.4036C201.731 22.4765 201.61 22.5145 200.997 22.5704C200.273 22.6363 199.448 22.8022 199.012 22.9694C198.735 23.0755 199.166 23.1922 200.458 23.361C201.097 23.4446 201.621 23.5432 201.621 23.5803C201.621 23.6174 201.952 23.6266 202.358 23.6007C202.95 23.5629 203.095 23.5863 203.095 23.7198C203.095 23.9258 202.736 24.2627 202.519 24.2603C202.386 24.2589 202.387 24.2396 202.528 24.1484C202.673 24.0547 202.668 24.038 202.496 24.0365C202.385 24.0355 202.264 24.1141 202.226 24.2112C202.169 24.3614 201.964 24.3787 200.841 24.3281C199.433 24.2646 199.087 24.3399 199.346 24.653C199.781 25.1774 201.552 25.7397 202.769 25.7397C203.505 25.7397 203.889 25.8775 203.889 26.1415C203.889 26.2736 203.708 26.3074 203.01 26.3052C202.527 26.3038 201.927 26.2487 201.677 26.1828C201.428 26.117 200.252 26.0399 199.065 26.0116C196.965 25.9615 196.905 25.9664 196.888 26.1886C196.872 26.4072 197.01 26.5646 197.254 26.6041C197.316 26.6142 197.805 26.7052 198.341 26.8064C200.094 27.1374 201.651 27.339 203.244 27.4415C204.72 27.5364 205.224 27.6666 205.071 27.9139C205.036 27.9704 204.959 27.9863 204.899 27.9494C204.84 27.9125 204.805 27.95 204.822 28.0328C204.839 28.116 204.765 28.1764 204.656 28.1677C204.547 28.1592 204.483 28.1919 204.513 28.2405C204.543 28.2891 204.394 28.3614 204.183 28.4013C203.725 28.4873 203.616 28.6922 203.851 29.0276C203.976 29.2063 203.989 29.3129 203.9 29.4205C203.754 29.5969 203.849 29.7177 204.135 29.7177C204.249 29.7177 204.343 29.7391 204.343 29.7652C204.343 29.7914 204.377 29.9013 204.418 30.0094C204.487 30.19 204.411 30.1999 203.482 30.1306C202.926 30.0892 202.28 30.0249 202.046 29.9877C201.707 29.9339 201.621 29.9563 201.621 30.0974C201.621 30.1949 201.538 30.3208 201.438 30.3772C201.178 30.5228 201.334 31.1777 201.66 31.3093C201.892 31.4035 201.893 31.4089 201.677 31.4234C201.45 31.4386 201.45 31.4386 201.677 31.5363C201.899 31.6315 201.589 31.6723 200.43 31.7006C199.946 31.7125 199.579 31.8655 199.579 32.0554C199.579 32.1569 199.461 32.2188 199.267 32.2198C199.095 32.2208 198.839 32.2525 198.697 32.2905C198.455 32.3555 198.452 32.3692 198.64 32.5127C198.751 32.5968 198.981 32.6672 199.152 32.6692C199.323 32.6713 199.799 32.8518 200.211 33.0706C200.626 33.2913 201.124 33.4685 201.33 33.4685C202.017 33.4685 203.089 33.6132 203.037 33.6988C203.008 33.7455 203.071 33.7767 203.177 33.7682C203.283 33.7596 203.388 33.8407 203.41 33.9485C203.462 34.1985 202.792 34.6297 202.447 34.5687C202.309 34.5444 202.177 34.5802 202.154 34.6484C202.101 34.8092 200.777 34.8547 200.248 34.7139C200.023 34.6541 198.862 34.5913 197.667 34.5744C195.648 34.5458 195.052 34.6038 195.807 34.7556C195.979 34.7901 196.349 34.8704 196.63 34.9341C196.91 34.9977 197.357 35.052 197.622 35.0547C197.887 35.0575 198.104 35.1108 198.104 35.1733C198.104 35.2358 198.184 35.287 198.282 35.287C198.38 35.287 198.564 35.3432 198.692 35.4119C198.923 35.5354 198.922 35.5382 198.657 35.6709C198.191 35.9034 198.335 36.1227 199.117 36.3719C199.519 36.4997 199.871 36.6787 199.9 36.7697C199.929 36.8606 199.998 36.9647 200.053 37.001C200.227 37.115 200.019 37.4657 199.823 37.3902C199.724 37.352 199.674 37.3522 199.712 37.3906C199.75 37.429 199.653 37.5893 199.496 37.7468C199.289 37.9541 199.076 38.0385 198.724 38.0522C198.457 38.0625 198.26 38.1044 198.285 38.1453C198.31 38.1862 197.842 38.1946 197.245 38.1639C196.377 38.1194 196.121 38.1428 195.969 38.2805C195.758 38.4719 194.644 38.5507 194.063 38.4155C193.841 38.3639 193.679 38.3798 193.631 38.458C193.589 38.5268 193.433 38.5831 193.286 38.5831C192.945 38.5831 192.66 38.6922 192.66 38.8226C192.66 38.8784 192.734 38.9241 192.824 38.9241C192.915 38.9241 193.032 39.0017 193.085 39.0965C193.145 39.2034 193.588 39.3481 194.253 39.4778C195.564 39.7333 196.529 40.1239 196.437 40.3621C196.402 40.4536 196.301 40.5005 196.212 40.4664C196.123 40.4322 196.079 40.4505 196.114 40.507C196.149 40.5635 196.044 40.7691 195.88 40.9639C195.661 41.2245 195.523 41.2988 195.355 41.2455C195.228 41.2053 195.155 41.2191 195.191 41.2765C195.226 41.3334 195.077 41.385 194.86 41.3912C194.643 41.3973 194.107 41.4904 193.669 41.5979L192.873 41.7934L193.127 42.0636C193.266 42.2123 193.427 42.3339 193.485 42.3339C193.542 42.3339 193.765 42.4172 193.979 42.519C194.352 42.6965 194.361 42.7149 194.196 42.9677C194.087 43.1338 194.066 43.2574 194.137 43.3019C194.2 43.3408 194.219 43.4256 194.179 43.4905C194.132 43.5666 194.071 43.5537 194.007 43.4542C193.942 43.3541 193.878 43.3407 193.822 43.416C193.776 43.4797 193.584 43.6059 193.397 43.6964L193.057 43.8608L193.416 43.8994C193.804 43.9413 194.012 44.2329 193.731 44.3413C193.635 44.3779 193.529 44.3796 193.495 44.345C193.46 44.3105 193.262 44.3778 193.054 44.4947C192.847 44.6116 192.483 44.7437 192.246 44.7882C192.009 44.8328 191.746 44.9381 191.662 45.0223C191.463 45.2217 191.385 45.2173 190.331 44.9472C189.385 44.7048 189.119 44.7274 188.731 45.0828C188.512 45.2833 188.423 45.2932 187.831 45.1834C187.053 45.0394 185.589 45.021 185.672 45.1562C185.704 45.2082 186.103 45.3144 186.558 45.3922C187.717 45.5903 187.848 45.6328 187.658 45.7507C187.327 45.9551 188.805 46.4376 190.25 46.597C190.64 46.6401 190.983 46.7154 191.014 46.7644C191.044 46.8134 190.962 46.9899 190.831 47.1566C190.611 47.4365 190.607 47.475 190.776 47.6619C190.876 47.7732 190.958 47.8922 190.958 47.9264C190.958 48.0669 189.038 47.8647 188.406 47.6578C187.498 47.3603 185.66 47.1431 185.49 47.3134C185.4 47.4034 185.399 47.4807 185.487 47.5868C185.606 47.73 185.788 47.7912 187.3 48.1974C187.772 48.3241 188.009 48.445 188.009 48.5589C188.009 48.7029 187.875 48.718 187.168 48.6537C186.628 48.6048 186.3 48.6195 186.253 48.6949C186.214 48.7595 186.243 48.8124 186.32 48.8124C186.396 48.8124 186.433 48.8389 186.4 48.8713C186.324 48.9475 184.718 48.6096 184.558 48.4839C184.433 48.385 182.776 48.1293 182.423 48.1543C182.314 48.162 182.224 48.2324 182.224 48.3106C182.224 48.3888 182.198 48.5218 182.166 48.6061C182.11 48.7516 183.495 49.0459 185.882 49.3956C186.241 49.4482 186.719 49.5686 186.945 49.6633C187.171 49.7579 187.516 49.8356 187.711 49.836C188.225 49.837 188.963 50.062 188.843 50.1815C188.788 50.2368 188.097 50.2966 187.308 50.3144C186.519 50.3322 185.882 50.3555 185.893 50.3661C185.903 50.3767 186.164 50.4847 186.472 50.606C187.009 50.8173 187.022 50.8324 186.776 50.964C186.584 51.067 186.379 51.071 185.955 50.9798C185.264 50.8314 185.174 50.8295 185.174 50.9629C185.174 51.0204 185.326 51.1011 185.512 51.1421C186.133 51.2786 185.998 51.4266 185.254 51.4266C184.821 51.4266 184.384 51.4987 184.171 51.605C183.956 51.7125 183.714 51.7517 183.563 51.7035C183.239 51.6006 177.914 51.5614 177.976 51.6624C178.108 51.8763 176.62 51.8752 175.35 51.6603C172.779 51.2254 170.591 50.9781 169.18 50.963C168.4 50.9547 167.226 50.8775 166.571 50.7916C165.916 50.7057 164.749 50.5827 163.978 50.5183C163.207 50.4538 162.543 50.3814 162.504 50.3574C162.464 50.3333 162.048 50.281 161.581 50.2411C161.113 50.2012 160.551 50.1469 160.333 50.1205C159.878 50.0654 157.809 49.9498 156.306 49.8955C155.219 49.8562 153.567 49.7517 152.45 49.6514C152.075 49.6178 150.621 49.5685 149.217 49.5419C147.813 49.5152 146.154 49.4515 145.531 49.4002C144.907 49.349 143.181 49.3122 141.696 49.3184C139.451 49.3278 138.978 49.3579 138.889 49.4972C138.798 49.6393 138.766 49.6407 138.68 49.5061C138.612 49.4005 138.466 49.37 138.242 49.4147C138.058 49.4518 137.852 49.4261 137.783 49.3575C137.715 49.2891 137.49 49.2223 137.284 49.2091C137.079 49.196 136.808 49.1549 136.683 49.1179C136.003 48.9162 135.295 48.8575 135.01 48.9793C134.781 49.0771 134.209 48.9616 134.288 48.8335C134.317 48.7863 133.771 48.734 133.073 48.7172C131.196 48.6719 131.001 48.6513 130.789 48.4746C130.616 48.3309 130.599 48.3375 130.633 48.5343C130.659 48.6842 130.617 48.7425 130.501 48.7151C130.408 48.6929 130.216 48.6737 130.076 48.6725C129.936 48.6712 129.821 48.6309 129.821 48.5829C129.821 48.5349 129.739 48.464 129.638 48.4254C129.505 48.3743 129.474 48.4037 129.523 48.5328C129.57 48.6552 129.548 48.6826 129.451 48.621C129.374 48.5718 128.825 48.5155 128.233 48.4958C126.986 48.4546 127.172 48.4551 121.314 48.4758C118.849 48.4845 116.518 48.4547 116.132 48.4095C115.746 48.3644 115.345 48.3605 115.24 48.4008C115.047 48.475 111.342 48.6216 110.203 48.6C109.313 48.5831 108.303 49.1076 108.865 49.2952C108.948 49.3232 108.891 49.4036 108.723 49.4922C108.567 49.5745 108.411 49.6851 108.377 49.7378C108.251 49.9285 107.288 50.035 107.015 49.8883C106.842 49.7959 106.386 49.7627 105.668 49.7904C105.07 49.8134 103.107 49.8593 101.306 49.8922C99.5043 49.9252 97.9065 49.9834 97.755 50.0215C97.6035 50.0596 96.9596 50.0986 96.3241 50.1081C95.6886 50.1177 95.0665 50.183 94.9417 50.2533C94.7185 50.379 93.6666 50.5854 93.4905 50.538C93.2734 50.4796 92.8705 50.4943 92.503 50.574C92.2847 50.6213 92.004 50.6515 91.8792 50.641C91.7544 50.6305 91.5502 50.6129 91.4255 50.6019C91.3007 50.5909 90.7137 50.6419 90.1211 50.7153C89.5284 50.7888 88.8228 50.8478 88.5531 50.8465C88.2834 50.8452 88.0027 50.8925 87.9293 50.9516C87.8559 51.0108 87.6299 51.0947 87.4272 51.1382C87.1254 51.2028 87.0585 51.1822 87.0585 51.0248C87.0585 50.8544 86.9647 50.8416 86.2362 50.9129C85.7839 50.9572 84.5971 51.0051 83.599 51.0195C82.6008 51.0339 81.5092 51.1058 81.1731 51.1792C80.8371 51.2527 80.5374 51.3128 80.507 51.3128C80.4767 51.3128 80.5155 51.3895 80.5931 51.4832C80.6708 51.577 80.9067 51.6537 81.1174 51.6537C81.3281 51.6537 81.5006 51.6751 81.5006 51.7013C81.5006 51.7274 81.5315 51.8297 81.5694 51.9286C81.6638 52.1752 81.3445 52.163 81.0924 51.9105C80.9496 51.7674 80.8819 51.7518 80.8478 51.8543C80.8218 51.9323 80.7539 51.9672 80.6969 51.9319C80.6398 51.8966 80.5931 51.909 80.5931 51.9596C80.5931 52.0102 80.4783 52.0578 80.3379 52.0655C80.1976 52.0731 79.4192 52.1373 78.6082 52.2081C77.7971 52.2788 76.1638 52.3572 74.9785 52.3822C73.7932 52.4073 72.6957 52.4558 72.5398 52.4901C72.0113 52.6062 69.1059 52.8755 67.549 52.9527C64.664 53.0956 62.4768 53.5091 62.0258 53.9967C61.8847 54.1493 61.6361 54.2724 61.4576 54.2782C59.9898 54.326 57.9515 54.4792 57.0569 54.6089C56.6826 54.6632 56.0259 54.739 55.5977 54.7773C55.1694 54.8157 54.5627 54.8957 54.2494 54.9553C53.9361 55.0148 53.6613 55.0635 53.6386 55.0635C53.6159 55.0635 53.5974 54.9328 53.5974 54.7728ZM53.5974 53.7387C53.5974 53.6144 53.5471 53.6051 53.3747 53.6975C53.2417 53.7689 53.1786 53.886 53.2178 53.9886C53.2685 54.1208 53.3196 54.1303 53.4405 54.0297C53.5268 53.958 53.5974 53.827 53.5974 53.7387ZM72.7099 52.0482C73.1537 51.8887 73.1425 51.8864 72.1995 51.9418C70.0401 52.0687 69.3638 52.133 69.3638 52.2113C69.3638 52.3596 72.2326 52.2198 72.7099 52.0482ZM20.0228 50.6757C20.0228 50.6511 19.9462 50.631 19.8526 50.631C19.759 50.631 19.6825 50.6805 19.6825 50.7411C19.6825 50.8016 19.759 50.8217 19.8526 50.7858C19.9462 50.7498 20.0228 50.7002 20.0228 50.6757ZM28.2463 50.29C28.2859 50.2258 28.193 50.1764 28.0328 50.1764C27.8768 50.1764 27.7177 50.2275 27.6791 50.29C27.6395 50.3542 27.7324 50.4037 27.8926 50.4037C28.0486 50.4037 28.2077 50.3525 28.2463 50.29ZM22.8585 49.7085C22.8585 49.5912 22.7226 49.5802 22.4707 49.6771C22.1861 49.7865 22.2625 49.923 22.5749 49.8632C22.7308 49.8333 22.8585 49.7637 22.8585 49.7085ZM87.0399 49.69C87.427 49.5819 87.4801 49.5404 87.2894 49.4952C86.9868 49.4233 83.3779 49.5752 81.4439 49.7412C80.9183 49.7863 84.977 49.8965 85.8108 49.8597C86.2164 49.8419 86.7694 49.7655 87.0399 49.69ZM90.9718 49.3402C91.0966 49.3106 90.8669 49.2906 90.4614 49.2957C89.4935 49.3078 89.1104 49.4122 89.7241 49.4966C89.9736 49.5309 90.3054 49.5218 90.4614 49.4765C90.6174 49.4311 90.847 49.3697 90.9718 49.3402ZM18.5858 49.3736C18.8194 49.3667 18.8179 49.3608 18.5556 49.2558C18.2463 49.132 17.9811 49.1937 17.9811 49.3894C17.9811 49.4607 18.0616 49.4878 18.1605 49.4498C18.2592 49.4118 18.4506 49.3775 18.5858 49.3736ZM92.6758 49.2456C92.7061 49.2152 92.5042 49.1818 92.2271 49.1713C91.95 49.1608 91.688 49.2093 91.6449 49.2792C91.5898 49.3685 91.7231 49.3906 92.0936 49.3536C92.3834 49.3246 92.6454 49.276 92.6758 49.2456ZM181.374 47.9032C181.417 47.8328 181.236 47.7947 180.898 47.803C180.414 47.8149 180.391 47.8262 180.693 47.9032C181.189 48.0298 181.296 48.0298 181.374 47.9032ZM6.54613 46.2343C6.46425 46.2015 6.36642 46.2055 6.32873 46.2433C6.29103 46.2811 6.35803 46.308 6.4776 46.303C6.60974 46.2976 6.63661 46.2706 6.54613 46.2343ZM7.88599 46.0847C8.11396 46.0115 8.12508 45.993 7.94271 45.9903C7.81794 45.9885 7.61377 46.0309 7.489 46.0847C7.19996 46.2091 7.49816 46.2091 7.88599 46.0847ZM9.40799 46.1293C9.50667 46.0914 9.58741 45.9684 9.58741 45.856C9.58741 45.6819 9.51607 45.6606 9.10534 45.712C8.58414 45.7773 8.24402 45.971 8.65061 45.971C8.78418 45.971 8.925 46.0222 8.96356 46.0847C9.04425 46.2155 9.15498 46.2266 9.40799 46.1293ZM193.681 44.1525C193.681 44.09 193.591 44.0396 193.482 44.0406C193.313 44.042 193.308 44.0583 193.454 44.1525C193.668 44.2911 193.681 44.2911 193.681 44.1525ZM12.2175 39.5285C12.1356 39.4956 12.0378 39.4997 12.0001 39.5375C11.9624 39.5752 12.0294 39.6021 12.149 39.5971C12.2811 39.5917 12.308 39.5648 12.2175 39.5285ZM11.2888 39.1969C11.2888 39.0116 10.9734 38.9908 10.5589 39.1487C10.1078 39.3206 10.2148 39.4415 10.7784 39.3966C11.1208 39.3693 11.2888 39.3036 11.2888 39.1969ZM13.3957 39.2789C13.2824 39.0952 12.8768 39.0484 12.8768 39.219C12.8768 39.3147 12.9933 39.3788 13.1671 39.3788C13.3267 39.3788 13.4296 39.3338 13.3957 39.2789ZM12.5365 39.1515C12.6631 39.0695 12.5977 39.0409 12.2813 39.0396C12.0474 39.0385 11.856 39.089 11.856 39.1515C11.856 39.2963 12.313 39.2963 12.5365 39.1515ZM201.621 25.8534C201.621 25.7909 201.57 25.7398 201.507 25.7398C201.445 25.7398 201.394 25.7909 201.394 25.8534C201.394 25.9159 201.445 25.9671 201.507 25.9671C201.57 25.9671 201.621 25.9159 201.621 25.8534ZM202.443 23.7323C202.365 23.7008 202.237 23.7008 202.159 23.7323C202.081 23.7638 202.145 23.7896 202.301 23.7896C202.457 23.7896 202.521 23.7638 202.443 23.7323ZM200.742 22.3634C200.601 22.3363 200.371 22.3363 200.231 22.3634C200.091 22.3905 200.206 22.4127 200.486 22.4127C200.767 22.4127 200.882 22.3905 200.742 22.3634ZM195.495 21.4459C195.495 21.3972 195.074 21.2968 194.56 21.2226C194.045 21.1485 193.501 21.0524 193.351 21.0091C193.181 20.9601 193.104 20.9729 193.147 21.0427C193.186 21.1046 193.666 21.2203 194.214 21.2998C194.763 21.3793 195.263 21.4606 195.325 21.4804C195.388 21.5002 195.452 21.5205 195.467 21.5254C195.483 21.5303 195.495 21.4946 195.495 21.4459ZM30.0611 20.3978C30.2637 20.3106 30.2553 20.2993 29.9827 20.2921C29.8149 20.2877 29.646 20.3353 29.6074 20.3978C29.5237 20.5335 29.746 20.5335 30.0611 20.3978ZM194.701 19.7319C194.701 19.6782 194.189 19.5759 193.563 19.5046C192.153 19.3439 191.9 19.3406 192.044 19.4851C192.104 19.5458 192.714 19.6409 193.399 19.6966C194.084 19.7522 194.658 19.8049 194.673 19.8136C194.689 19.8224 194.701 19.7856 194.701 19.7319ZM23.6975 18.3709C23.7296 18.3188 23.6816 18.2762 23.5907 18.2762C23.4999 18.2762 23.4256 18.3188 23.4256 18.3709C23.4256 18.423 23.4736 18.4656 23.5323 18.4656C23.591 18.4656 23.6653 18.423 23.6975 18.3709ZM38.873 18.1606C38.7911 18.1278 38.6933 18.1318 38.6556 18.1696C38.6179 18.2074 38.6849 18.2342 38.8045 18.2293C38.9366 18.2238 38.9635 18.1969 38.873 18.1606ZM21.2705 18.011C21.2705 17.9484 21.1811 17.8981 21.072 17.899C20.9023 17.9005 20.8982 17.9168 21.0436 18.011C21.2577 18.1496 21.2705 18.1496 21.2705 18.011ZM21.7242 17.8338C21.7242 17.8062 21.6731 17.7836 21.6107 17.7836C21.5484 17.7836 21.4973 17.8378 21.4973 17.904C21.4973 17.9702 21.5484 17.9928 21.6107 17.9541C21.6731 17.9155 21.7242 17.8613 21.7242 17.8338ZM28.1896 17.0424C28.3455 16.9987 28.8304 16.9203 29.2671 16.8681C29.7038 16.8159 30.2398 16.7192 30.4581 16.6531C30.6765 16.587 30.8551 16.5372 30.8551 16.5425C30.8551 16.586 31.6321 16.3428 32.0177 16.1785C32.6029 15.9293 32.6399 15.7378 32.1028 15.7378C31.8255 15.7378 31.7058 15.6864 31.7058 15.5673C31.7058 15.3925 32.2135 15.3234 33.0562 15.3835C33.4233 15.4097 34.4707 15.2138 34.7105 15.0741C34.8896 14.9698 34.3172 14.8522 33.5705 14.8398C33.0848 14.8318 32.6709 14.9119 32.1595 15.1127C31.7616 15.2689 31.3308 15.3976 31.2022 15.3985C31.0161 15.4 31.0021 15.4215 31.1333 15.5047C31.2239 15.5621 31.3387 15.5839 31.3885 15.5531C31.4382 15.5223 31.479 15.5455 31.479 15.6045C31.479 15.7063 31.2307 15.7781 30.3643 15.9271C30.1568 15.9628 29.9594 16.064 29.9257 16.1519C29.8757 16.2827 29.832 16.2854 29.6863 16.1669C29.5372 16.0455 29.5191 16.051 29.575 16.201C29.6239 16.332 29.5763 16.375 29.3978 16.3611C29.2635 16.3507 28.9843 16.3886 28.7773 16.4453C28.5163 16.5168 28.3512 16.507 28.2385 16.4133C28.1472 16.3374 28.0761 16.3273 28.0761 16.3904C28.0761 16.5158 27.2119 16.8744 26.9097 16.8744C26.8026 16.8744 26.715 16.9443 26.715 17.0298C26.715 17.1455 26.8671 17.1771 27.3105 17.1535C27.638 17.1361 28.0336 17.0861 28.1896 17.0424ZM32.8556 12.9204C32.7738 12.8931 32.6529 12.9248 32.587 12.9908C32.5028 13.0752 32.5471 13.09 32.7358 13.0405C32.8891 13.0003 32.9406 12.9488 32.8556 12.9204ZM169.861 12.4701C169.861 12.4232 169.706 12.374 169.516 12.3607C169.319 12.3469 169.201 12.3833 169.24 12.4459C169.319 12.5741 169.861 12.5952 169.861 12.4701ZM33.1804 11.7541L33.4639 11.7453L33.1994 11.6391C32.9005 11.519 32.3864 11.6115 32.3864 11.7853C32.3864 11.8487 32.5005 11.8693 32.6416 11.8314C32.782 11.7937 33.0244 11.7589 33.1804 11.7541ZM168.953 11.7787C168.953 11.7266 168.877 11.684 168.783 11.684C168.69 11.684 168.613 11.7266 168.613 11.7787C168.613 11.8308 168.69 11.8734 168.783 11.8734C168.877 11.8734 168.953 11.8308 168.953 11.7787ZM169.428 11.7957C169.346 11.7629 169.249 11.767 169.211 11.8047C169.173 11.8425 169.24 11.8693 169.36 11.8644C169.492 11.859 169.519 11.832 169.428 11.7957ZM35.1299 11.5684C35.048 11.5356 34.9502 11.5396 34.9125 11.5774C34.8748 11.6152 34.9418 11.642 35.0614 11.6371C35.1935 11.6316 35.2204 11.6047 35.1299 11.5684ZM22.4047 11.4187C22.4047 11.3562 22.3537 11.3051 22.2913 11.3051C22.2289 11.3051 22.1779 11.3562 22.1779 11.4187C22.1779 11.4813 22.2289 11.5324 22.2913 11.5324C22.3537 11.5324 22.4047 11.4813 22.4047 11.4187ZM25.3539 11.1207C25.3539 10.9933 25.1408 11.105 25.0798 11.2643C25.0201 11.4203 25.0367 11.4274 25.1811 11.3072C25.2761 11.2282 25.3539 11.1443 25.3539 11.1207ZM26.4881 11.1346C26.4881 11.0408 26.4681 10.9641 26.4436 10.9641C26.419 10.9641 26.3696 11.0408 26.3337 11.1346C26.2978 11.2284 26.3178 11.3051 26.3783 11.3051C26.4387 11.3051 26.4881 11.2284 26.4881 11.1346ZM174.986 7.2494C174.904 7.21656 174.807 7.22061 174.769 7.25835C174.731 7.29612 174.798 7.32299 174.918 7.31805C175.05 7.31261 175.077 7.28568 174.986 7.2494ZM70.55 4.94804C70.5859 4.88984 70.5687 4.81342 70.5118 4.77821C70.455 4.74298 70.3792 4.7906 70.3434 4.88401C70.2729 5.06815 70.4433 5.12098 70.55 4.94804ZM16.7108 53.7282C16.6456 53.6501 16.6367 53.5846 16.6911 53.5827C16.7455 53.5808 16.6946 53.5236 16.578 53.4557C16.2787 53.2815 16.5438 53.1322 17.1304 53.1446C17.4367 53.151 17.5104 53.1782 17.3572 53.2281C17.1411 53.2985 16.98 53.5878 17.1587 53.5846C17.4918 53.5785 17.7323 53.4299 17.6804 53.2624C17.6297 53.0988 17.6433 53.1002 17.7858 53.2736C17.9795 53.5092 18.8427 53.5525 18.9173 53.3304C18.9552 53.2176 19.0013 53.2183 19.1414 53.3341C19.3622 53.5167 19.4925 53.9603 19.3049 53.891C19.2318 53.864 19.1886 53.773 19.2088 53.6888C19.2345 53.5817 19.1824 53.5929 19.0356 53.7261C18.868 53.8781 18.6247 53.9118 17.8276 53.8934C17.1938 53.8787 16.7862 53.8184 16.7108 53.7282ZM15.1538 53.4777C15.0027 53.3841 15.0753 53.1315 15.2534 53.1315C15.3827 53.1315 15.4963 53.4524 15.3902 53.5182C15.3432 53.5473 15.2368 53.5291 15.1538 53.4777ZM17.5537 52.5632C17.4282 52.3619 17.4413 52.3339 17.6682 52.3186C17.8091 52.3091 18.0009 52.2929 18.0945 52.2827C18.3971 52.2497 18.454 52.3535 18.2544 52.5745C18.0023 52.8536 17.732 52.8493 17.5537 52.5632ZM86.2646 51.7175C86.2646 51.6899 86.3156 51.6357 86.378 51.5971C86.4404 51.5585 86.4914 51.581 86.4914 51.6472C86.4914 51.7134 86.4404 51.7676 86.378 51.7676C86.3156 51.7676 86.2646 51.745 86.2646 51.7175ZM87.5954 51.6398C87.6724 51.5622 87.7639 51.5272 87.7988 51.5622C87.8338 51.5972 87.7708 51.6608 87.6589 51.7035C87.4973 51.7651 87.4843 51.7521 87.5954 51.6398ZM26.715 51.3269C26.715 51.272 26.7937 51.1617 26.8899 51.0816C27.026 50.9685 27.0952 50.9665 27.2009 51.0725C27.3067 51.1784 27.2993 51.2326 27.1678 51.316C26.9539 51.4515 26.715 51.4572 26.715 51.3269ZM154.775 50.29C154.775 50.2275 154.848 50.1764 154.938 50.1764C155.028 50.1764 155.133 50.2275 155.172 50.29C155.21 50.3525 155.137 50.4037 155.008 50.4037C154.88 50.4037 154.775 50.3525 154.775 50.29ZM152.847 50.1693C152.847 50.0399 153.151 50.0267 153.229 50.1528C153.26 50.2023 153.186 50.2503 153.066 50.2594C152.945 50.2685 152.847 50.2279 152.847 50.1693ZM40.3597 49.9859C40.2576 49.7194 40.4132 49.6803 40.8052 49.8739C41.0097 49.9749 41.126 50.0652 41.0636 50.0746C40.5856 50.1467 40.4129 50.1249 40.3597 49.9859ZM138.441 49.7217C138.441 49.6592 138.464 49.6081 138.491 49.6081C138.519 49.6081 138.573 49.6592 138.611 49.7217C138.65 49.7842 138.628 49.8354 138.561 49.8354C138.495 49.8354 138.441 49.7842 138.441 49.7217ZM136.806 49.6233C136.757 49.5441 136.748 49.4486 136.785 49.4111C136.887 49.3094 136.997 49.459 136.943 49.6238C136.904 49.7393 136.877 49.7394 136.806 49.6233ZM137.222 49.6465C136.99 49.5526 137.061 49.3971 137.307 49.4615C137.432 49.4942 137.534 49.5661 137.534 49.6213C137.534 49.7297 137.445 49.7368 137.222 49.6465ZM191.601 49.0777C191.471 48.9469 191.519 48.8125 191.696 48.8125C191.789 48.8125 191.866 48.8892 191.866 48.9829C191.866 49.1604 191.732 49.2084 191.601 49.0777ZM50.8329 48.3814C50.8024 48.3319 50.877 48.2838 50.9988 48.2746C51.1206 48.2655 51.1907 48.306 51.1544 48.3647C51.0741 48.495 50.9083 48.5036 50.8329 48.3814ZM51.8554 48.1862C51.891 48.0931 52.0041 48.0129 52.1066 48.0081C52.2091 48.0033 52.5226 47.9763 52.8034 47.9482C53.1715 47.9112 53.2664 47.929 53.1437 48.012C53.0033 48.1069 53.0016 48.1273 53.1342 48.1288C53.2226 48.1298 53.2631 48.1624 53.2242 48.2013C53.1853 48.2403 52.8468 48.2909 52.472 48.3139C51.9043 48.3486 51.8014 48.3273 51.8554 48.1862ZM5.56557 47.911C5.48168 47.775 5.69506 47.6403 5.84615 47.7339C5.973 47.8124 5.88972 48.0168 5.73087 48.0168C5.67585 48.0168 5.60146 47.9692 5.56557 47.911ZM6.63829 44.9548C6.63829 44.896 6.68875 44.8166 6.75042 44.7784C6.81472 44.7386 6.83373 44.7842 6.795 44.8853C6.71959 45.0822 6.63829 45.1183 6.63829 44.9548ZM7.47009 44.8962C7.47009 44.8052 7.51346 44.7576 7.56647 44.7904C7.61947 44.8233 7.63347 44.8977 7.59758 44.9559C7.50586 45.1046 7.47009 45.0879 7.47009 44.8962ZM205.137 30.0588C205.043 29.9982 205.018 29.9486 205.08 29.9486C205.143 29.9486 205.27 29.9982 205.364 30.0588C205.457 30.1194 205.483 30.1689 205.42 30.1689C205.358 30.1689 205.23 30.1194 205.137 30.0588ZM18.7751 21.6238C18.7751 21.5746 18.8771 21.5344 19.0019 21.5344C19.1267 21.5344 19.2288 21.5823 19.2288 21.641C19.2288 21.6996 19.1267 21.7398 19.0019 21.7304C18.8771 21.721 18.7751 21.673 18.7751 21.6238ZM23.525 19.9546L23.259 19.7388L23.9378 19.6485C24.3111 19.5989 24.8845 19.5553 25.2119 19.5518C25.5394 19.5482 25.8074 19.5105 25.8074 19.468C25.8075 19.3795 26.4832 19.5558 26.5886 19.6718C26.6269 19.714 26.5008 19.7185 26.3084 19.6819C26.093 19.6409 25.8314 19.6827 25.6278 19.7905C25.4459 19.8868 25.0292 19.9706 24.7017 19.9766C24.3741 19.9827 24.1062 20.0288 24.1062 20.079C24.1062 20.242 23.7978 20.176 23.525 19.9546ZM22.0952 19.9881C22.1329 19.9504 22.2307 19.9463 22.3126 19.9792C22.4031 20.0155 22.3762 20.0424 22.2441 20.0478C22.1245 20.0528 22.0575 20.0259 22.0952 19.9881ZM20.0317 18.4182C20.0268 18.2984 20.0536 18.2313 20.0913 18.269C20.129 18.3068 20.133 18.4048 20.1002 18.4869C20.064 18.5776 20.0372 18.5506 20.0317 18.4182ZM23.1295 17.4629C23.1612 17.4116 23.0827 17.2799 22.955 17.1704C22.7266 16.9744 22.7341 16.9659 23.4247 16.6386C24.2564 16.2445 24.333 16.2356 24.333 16.5334C24.333 16.6734 24.2568 16.7614 24.1345 16.7624C23.9736 16.7639 23.9664 16.7835 24.0965 16.866C24.1848 16.9219 24.3506 16.9497 24.4651 16.9276C24.5796 16.9055 24.6733 16.9395 24.6733 17.0032C24.6733 17.067 24.5074 17.11 24.3047 17.0989C24.1019 17.0877 23.8339 17.0846 23.7092 17.0919C23.5202 17.103 23.5107 17.1236 23.6524 17.2154C23.7979 17.3095 23.7937 17.3258 23.6241 17.3273C23.5149 17.3283 23.4256 17.3802 23.4256 17.4427C23.4256 17.5052 23.346 17.5563 23.2488 17.5563C23.1515 17.5563 23.0978 17.5143 23.1295 17.4629ZM24.5799 16.5458C24.4658 16.4751 24.4703 16.4277 24.6011 16.3189C24.7847 16.1663 24.9309 16.2996 24.8046 16.5044C24.7596 16.5774 24.6604 16.5957 24.5799 16.5458ZM20.6466 11.7597C20.6081 11.6972 20.6531 11.646 20.7467 11.646C20.8402 11.646 20.9483 11.6972 20.9869 11.7597C21.0255 11.8222 20.9804 11.8734 20.8869 11.8734C20.7933 11.8734 20.6852 11.8222 20.6466 11.7597ZM22.9697 11.2508C23.1331 11.0536 23.1987 11.0331 23.1987 11.1793C23.1987 11.2351 23.115 11.313 23.0126 11.3523C22.8569 11.4122 22.8499 11.3956 22.9697 11.2508ZM183.277 9.41665C183.41 9.28341 184.136 9.179 184.283 9.27205C184.367 9.32559 184.385 9.37526 184.323 9.38242C183.712 9.45255 183.225 9.46849 183.277 9.41665ZM182.589 9.27642C182.494 9.21648 182.565 9.18345 182.787 9.18345C182.977 9.18345 183.132 9.22607 183.132 9.27816C183.132 9.39913 182.78 9.39812 182.589 9.27642ZM179.672 9.13132C179.187 9.0224 178.008 8.94428 175.805 8.87505C175.051 8.85134 174.325 8.77342 174.192 8.70191C174.046 8.62407 173.538 8.58448 172.926 8.60328C172.363 8.62057 171.902 8.62308 171.902 8.60881C171.902 8.56927 172.562 8.23621 172.641 8.23621C172.679 8.23621 172.678 8.28735 172.64 8.34986C172.599 8.41617 172.714 8.46353 172.917 8.46353C173.108 8.46353 173.264 8.41238 173.264 8.34986C173.264 8.28735 173.318 8.23621 173.384 8.23621C173.45 8.23621 173.466 8.30014 173.419 8.37828C173.356 8.48333 173.376 8.49036 173.497 8.40525C173.587 8.34194 173.763 8.29601 173.888 8.30319C174.012 8.31034 174.385 8.32379 174.717 8.33305C175.048 8.34229 175.295 8.38822 175.266 8.43511C175.237 8.48199 175.528 8.51286 175.912 8.50371C176.296 8.49447 176.699 8.53473 176.808 8.59296C176.941 8.66364 177.007 8.65749 177.007 8.57449C177.007 8.50609 177.069 8.48833 177.144 8.53504C177.219 8.58174 177.717 8.6339 178.25 8.65096C178.783 8.66801 179.219 8.68802 179.219 8.69543C179.219 8.70286 179.474 8.72547 179.786 8.74574C180.098 8.76599 180.366 8.79389 180.381 8.80775C180.408 8.83138 180.525 8.86581 180.722 8.908C180.812 8.92735 180.279 9.25745 180.183 9.24205C180.152 9.23703 179.922 9.18729 179.672 9.13132ZM175.078 8.56305C175.078 8.50836 174.979 8.4636 174.858 8.4636C174.737 8.4636 174.611 8.50836 174.577 8.56305C174.543 8.61776 174.642 8.6625 174.797 8.6625C174.952 8.6625 175.078 8.61776 175.078 8.56305ZM181.146 8.23444C181.107 8.1709 181.027 8.14834 180.969 8.18431C180.911 8.22028 180.863 8.19855 180.863 8.13605C180.863 7.91599 181.046 7.9125 181.182 8.13002C181.257 8.251 181.296 8.34997 181.268 8.34997C181.24 8.34997 181.185 8.29796 181.146 8.23444ZM178.718 7.79113C178.598 7.67131 178.477 7.597 178.448 7.62598C178.419 7.65498 178.146 7.69583 177.843 7.71679C177.316 7.7531 176.664 7.51895 176.829 7.35317C176.962 7.22047 177.745 7.25153 177.916 7.39625C178.091 7.54444 178.411 7.54935 178.554 7.40601C178.674 7.2854 179.253 7.31185 179.333 7.44163C179.442 7.61828 179.28 8.0089 179.098 8.0089C179.008 8.0089 178.837 7.91094 178.718 7.79113ZM179.888 7.87775C179.84 7.79942 179.857 7.77726 179.931 7.82276C179.998 7.86471 180.086 7.84703 180.125 7.7835C180.231 7.61214 180.372 7.64359 180.372 7.83848C180.372 8.03869 180.006 8.06841 179.888 7.87775ZM47.2761 7.03104C47.3138 6.99327 47.4117 6.98922 47.4935 7.02208C47.584 7.05836 47.5572 7.0853 47.425 7.09076C47.3054 7.09568 47.2384 7.06882 47.2761 7.03104ZM70.1578 3.80359C70.1578 3.74109 70.1803 3.68994 70.2078 3.68994C70.2354 3.68994 70.2894 3.74109 70.328 3.80359C70.3665 3.86611 70.344 3.91725 70.2779 3.91725C70.2119 3.91725 70.1578 3.86611 70.1578 3.80359ZM72.8027 3.8151C72.6196 3.68029 72.6634 3.48658 72.8651 3.53941C72.9936 3.57311 73.0761 3.52675 73.088 3.41411C73.0984 3.31576 73.1154 3.15859 73.1258 3.06482C73.1362 2.97105 73.2383 2.88794 73.3527 2.88012C73.4671 2.87228 73.5989 2.85536 73.6457 2.84245C73.6925 2.82952 73.8839 2.77773 74.0711 2.72732C74.4873 2.61524 74.7133 2.4478 74.6303 2.31316C74.5961 2.25773 74.669 2.21239 74.7922 2.21239C74.9155 2.21239 75.0422 2.27631 75.0738 2.35446C75.1138 2.45317 75.16 2.4593 75.2251 2.37459C75.3916 2.15787 75.7389 2.09023 75.9221 2.23886C76.0691 2.35815 76.0829 2.35517 76.0025 2.22148C75.9288 2.09889 75.953 2.07839 76.1034 2.13623C76.2124 2.17812 76.3704 2.21238 76.4547 2.21238C76.539 2.21238 76.6387 2.30942 76.6762 2.42803C76.7201 2.56665 76.8174 2.62457 76.9485 2.59021C77.238 2.51435 77.2081 2.23332 76.9162 2.28714C76.6856 2.32966 76.6854 2.32811 76.9068 2.2227C77.0315 2.1633 77.3064 2.1111 77.5176 2.10671C77.7287 2.10228 78.2136 2.04856 78.5951 1.98724C79.5839 1.82834 82.0695 1.54988 83.202 1.47115C83.7323 1.4343 84.3958 1.38387 84.6766 1.35908C85.268 1.30687 86.4356 1.22375 87.966 1.12493C88.5586 1.08666 89.3753 1.02718 89.7808 0.992764C90.7554 0.910034 92.2896 0.903863 92.5031 0.981854C92.5967 1.01603 92.8902 1.08326 93.1553 1.13127C93.4204 1.17927 93.6374 1.25618 93.6374 1.30218C93.6374 1.34817 93.5112 1.51226 93.3569 1.66679C93.1287 1.89555 92.9704 1.94571 92.5058 1.9366C92.1664 1.92987 91.9505 1.97207 91.9733 2.04051C91.9943 2.1038 92.4045 2.1598 92.8848 2.16494C93.6391 2.17299 94.1415 2.32005 93.9701 2.48253C93.8934 2.55523 92.3896 2.62706 92.3899 2.55802C92.39 2.52421 92.0455 2.51256 91.6243 2.53211C91.203 2.55167 90.5656 2.52122 90.2077 2.46432C89.8498 2.40747 89.5327 2.38523 89.5032 2.41489C89.4736 2.44454 89.2304 2.47959 88.9629 2.49278C88.6953 2.50598 88.3354 2.55627 88.163 2.60459C87.9766 2.65683 87.7912 2.64388 87.7055 2.57263C87.6263 2.50675 87.068 2.44102 86.4648 2.42657C85.7181 2.4087 85.3914 2.36125 85.4411 2.27793C85.4813 2.21066 85.4275 2.22602 85.3216 2.31209C85.1891 2.41974 84.985 2.44552 84.6676 2.39466C84.3646 2.3461 84.2308 2.36066 84.2779 2.43706C84.3582 2.56728 84.3433 2.56977 83.3154 2.59744C82.9099 2.60835 82.4633 2.65751 82.3229 2.70666C82.1826 2.75582 82.0677 2.75423 82.0677 2.70314C82.0677 2.65204 81.9401 2.61023 81.7842 2.61023C81.6282 2.61023 81.5006 2.64859 81.5006 2.69548C81.5006 2.74236 81.421 2.78072 81.3238 2.78072C81.2265 2.78072 81.1736 2.73753 81.2061 2.6847C81.2849 2.55707 80.1196 2.74452 80.0351 2.8731C79.8802 3.10849 77.7575 3.34702 77.7575 3.12903C77.7575 3.06251 77.7034 3.00804 77.6374 3.00804C77.5713 3.00804 77.5466 3.05566 77.5825 3.11385C77.6851 3.28021 77.4241 3.38263 77.2553 3.24225C77.1421 3.14808 77.0889 3.15384 77.0464 3.26484C77.0097 3.36068 76.823 3.40446 76.5227 3.38763C76.266 3.37326 76.0561 3.40926 76.0561 3.46765C76.0561 3.65561 75.4733 3.53217 75.3601 3.32025C75.2999 3.20755 75.2014 3.14588 75.1411 3.1832C75.0808 3.22053 75.0576 3.29333 75.0894 3.34496C75.1213 3.3966 75.0727 3.46756 74.9815 3.50264C74.8903 3.53772 74.785 3.5167 74.7475 3.45592C74.7059 3.38855 74.5606 3.4117 74.3752 3.51521C74.0263 3.71003 72.9411 3.91697 72.8027 3.8151ZM71.1787 3.29885C71.1787 3.09921 71.2467 3.06982 71.344 3.22746C71.3799 3.28565 71.3573 3.3654 71.294 3.40465C71.2306 3.44392 71.1787 3.39641 71.1787 3.29885ZM71.6061 3.10251C71.672 3.03646 71.7929 3.00478 71.8747 3.03211C71.9597 3.06049 71.9083 3.11202 71.7549 3.1522C71.5662 3.20164 71.5219 3.18684 71.6061 3.10251ZM110.68 2.81412C110.54 2.78703 110.425 2.72582 110.425 2.67811C110.425 2.53902 110.918 2.61463 110.966 2.7612C110.991 2.83443 110.994 2.88736 110.973 2.87885C110.952 2.8703 110.82 2.84122 110.68 2.81412ZM108.326 2.55335C108.638 2.41909 108.817 2.41909 108.61 2.55335C108.516 2.61396 108.363 2.66074 108.27 2.65729C108.157 2.65317 108.177 2.61777 108.326 2.55335ZM109.013 2.56393C108.978 2.50725 109.052 2.48765 109.177 2.52037C109.442 2.58977 109.475 2.667 109.24 2.667C109.15 2.667 109.048 2.62062 109.013 2.56393ZM94.4111 2.30672C94.2326 2.1269 94.3136 2.11443 95.7156 2.10597C96.5377 2.10095 97.3241 2.0749 97.4632 2.04797C97.6022 2.02104 97.7425 2.04194 97.7748 2.09438C97.8072 2.14684 97.9898 2.17892 98.1807 2.16567C98.6969 2.12987 98.6993 2.29534 98.1834 2.34465C97.9394 2.36796 97.7641 2.34768 97.7937 2.2997C97.8868 2.14873 97.7122 2.20474 97.5344 2.38285C97.3414 2.57621 96.8623 2.61102 96.7564 2.43938C96.7098 2.3637 96.6114 2.36546 96.4638 2.4446C96.2127 2.57927 95.9763 2.48776 96.0917 2.30057C96.1422 2.21872 96.1142 2.21093 96.0085 2.27742C95.9209 2.33254 95.5685 2.40481 95.2253 2.43804C94.7344 2.48557 94.561 2.45764 94.4111 2.30672ZM103.506 2.43966C103.506 2.37716 103.528 2.32602 103.556 2.32602C103.583 2.32602 103.637 2.37716 103.676 2.43966C103.714 2.50218 103.692 2.55333 103.626 2.55333C103.56 2.55333 103.506 2.50218 103.506 2.43966ZM98.9685 2.21235C98.8662 2.14615 98.8523 2.10147 98.9334 2.10043C99.0077 2.0994 99.1001 2.14983 99.1386 2.21235C99.2256 2.35346 99.1864 2.35346 98.9685 2.21235ZM143.272 2.19685C143.33 2.10169 142.898 1.98976 142.811 2.07747C142.689 2.19967 142.184 2.22275 142.184 2.10613C142.184 2.03399 141.862 2.01661 141.305 2.0588C140.623 2.11053 140.337 2.08387 140.029 1.93991C139.811 1.83787 139.718 1.77782 139.823 1.80648C139.929 1.83514 140.031 1.81412 140.05 1.75984C140.07 1.70554 140.163 1.64448 140.256 1.62416C140.35 1.60386 140.464 1.53608 140.51 1.47356C140.555 1.41105 140.594 1.47191 140.595 1.6089C140.596 1.84427 140.614 1.84896 140.908 1.69461C141.188 1.54813 141.236 1.55175 141.377 1.72976C141.527 1.91849 141.531 1.91847 141.466 1.72976C141.413 1.57626 141.46 1.53086 141.672 1.53086C141.823 1.53086 141.998 1.62037 142.062 1.72976C142.126 1.84014 142.179 1.86543 142.181 1.78659C142.185 1.63776 142.525 1.58152 142.525 1.72976C142.525 1.77664 142.911 1.81205 143.382 1.80844C143.854 1.80481 144.265 1.84318 144.296 1.89368C144.327 1.94417 144.462 1.98549 144.596 1.98549C144.79 1.98549 144.81 2.0139 144.697 2.12756C144.555 2.26981 143.186 2.33637 143.272 2.19685ZM145.134 2.19343C145.134 2.14133 145.172 2.09526 145.219 2.09104C145.265 2.08682 145.467 2.06196 145.667 2.0358C146.115 1.97697 146.275 2.17195 145.843 2.25162C145.417 2.33038 145.134 2.30718 145.134 2.19343ZM136.967 1.81456C136.967 1.75205 136.775 1.70091 136.542 1.70091C136.308 1.70091 136.079 1.75205 136.033 1.81456C135.977 1.89033 135.949 1.89033 135.947 1.81456C135.945 1.67216 135.265 1.63848 135.265 1.78076C135.265 1.83799 135.219 1.85609 135.162 1.82097C135.054 1.75407 134.057 1.64666 132.997 1.58784C132.654 1.5688 132.373 1.54174 132.373 1.52769C132.373 1.45152 130.881 1.45034 130.785 1.52646C130.615 1.66231 129.481 1.7571 129.481 1.63547C129.481 1.57769 129.404 1.53043 129.31 1.53043C129.217 1.53043 129.14 1.57978 129.14 1.64011C129.14 1.70859 128.341 1.72958 127.013 1.696C125.844 1.66643 124.764 1.64276 124.613 1.64341C124.463 1.64444 124.169 1.59745 123.961 1.53984C123.733 1.47685 123.582 1.47646 123.582 1.53881C123.582 1.6421 123.186 1.62537 123.078 1.51753C123.047 1.48643 122.531 1.47916 121.931 1.50139C121.208 1.52818 120.786 1.49687 120.68 1.40852C120.555 1.30469 120.519 1.30972 120.518 1.43121C120.517 1.52976 120.486 1.54349 120.433 1.46847C120.383 1.3972 119.738 1.34409 118.818 1.33559C117.976 1.32785 115.424 1.29216 113.147 1.25642C110.87 1.22068 107.948 1.18462 106.653 1.17629C105.359 1.16806 104.299 1.12916 104.299 1.09004C104.299 1.05091 104.018 1.0189 103.675 1.0189C103.332 1.0189 103.052 1.05726 103.052 1.10414C103.052 1.15103 102.998 1.18939 102.932 1.18939C102.866 1.18939 102.843 1.13824 102.882 1.07573C102.92 1.01322 102.872 0.962076 102.775 0.962076C102.678 0.962128 102.598 0.91098 102.598 0.848475C102.598 0.785959 102.544 0.73481 102.478 0.73481C102.412 0.73481 102.389 0.785959 102.428 0.848475C102.469 0.915604 102.344 0.961422 102.123 0.960386C101.839 0.958945 101.789 0.93186 101.918 0.848475C102.043 0.767099 102.049 0.737838 101.938 0.736551C101.822 0.73511 101.827 0.695617 101.958 0.564322C102.052 0.470555 102.234 0.393833 102.363 0.393833C102.492 0.393833 102.598 0.339238 102.598 0.27251C102.598 0.200545 102.696 0.182384 102.839 0.227872C103.001 0.279459 103.055 0.263374 103.003 0.178703C102.96 0.109482 102.955 0.0528562 102.992 0.0528562C103.029 0.0528562 103.098 0.158045 103.145 0.286615L103.232 0.520384L103.531 0.284614C103.736 0.123012 103.855 0.0890443 103.909 0.176651C103.965 0.267262 104.015 0.259584 104.083 0.150245C104.16 0.024922 104.938 -0.00317556 108.237 0.000272813C110.47 0.00268153 113.215 0.0373576 114.338 0.0775254C115.461 0.117685 117.324 0.180199 118.478 0.216449C122.645 0.347311 123.719 0.394871 123.812 0.452703C124.021 0.581925 124.935 0.696553 125.073 0.610846C125.159 0.558031 125.258 0.576889 125.309 0.655569C125.375 0.757108 125.425 0.748373 125.509 0.621149C125.57 0.52738 125.621 0.501807 125.622 0.564322C125.624 0.636056 126.325 0.672911 127.524 0.664246C129.419 0.650535 132.656 0.834008 132.657 0.955121C132.657 0.990233 133.052 1.0132 133.536 1.00618C134.364 0.994141 136.273 1.14968 136.611 1.25684C136.736 1.29638 136.738 1.33887 136.623 1.47755C136.507 1.61731 136.51 1.63999 136.639 1.59935C136.726 1.57189 136.939 1.51806 137.113 1.47976C137.308 1.43683 137.405 1.35684 137.364 1.27136C137.328 1.19505 137.358 1.21268 137.431 1.31051C137.538 1.45439 137.683 1.47203 138.193 1.40277C138.551 1.35407 138.908 1.36312 139.022 1.42377C139.131 1.48244 139.364 1.53739 139.54 1.5459C139.834 1.56015 139.838 1.56546 139.586 1.61305C139.374 1.65304 139.348 1.68771 139.472 1.76632C139.648 1.87755 139.5 1.89148 137.903 1.91466C137.345 1.92271 136.967 1.88225 136.967 1.81456ZM104.001 0.792288C103.965 0.698871 103.89 0.650753 103.834 0.685343C103.674 0.784521 103.716 0.962117 103.899 0.962117C104 0.962117 104.04 0.895447 104.001 0.792288ZM97.3851 1.18082C97.5018 0.962247 97.4949 0.937427 97.3343 0.99916C97.1742 1.06074 97.167 1.03585 97.2823 0.819822L97.4163 0.568987L97.5292 0.822389C97.6586 1.11311 97.8929 1.15538 97.9886 0.90529C98.0245 0.811521 98.013 0.734801 97.963 0.734801C97.9129 0.734801 97.872 0.657458 97.872 0.562915C97.872 0.423168 97.9745 0.404648 98.4202 0.463899C98.7948 0.513677 98.9685 0.496118 98.9685 0.408482C98.9685 0.33721 99.1479 0.280172 99.3722 0.280172C99.6368 0.280172 99.7493 0.323225 99.6988 0.405171C99.6439 0.494034 99.6904 0.493281 99.8596 0.402557C100.057 0.296514 100.086 0.304205 100.031 0.448044C99.9949 0.543252 99.9195 0.621156 99.8638 0.621156C99.808 0.621156 99.7625 0.672302 99.7625 0.734807C99.7625 0.971732 99.9674 0.834799 100.103 0.507491C100.261 0.125772 100.265 0.123674 100.549 0.276158C100.692 0.35308 100.737 0.473185 100.698 0.678677C100.667 0.839767 100.686 0.956665 100.741 0.938431C100.795 0.920211 100.866 0.95527 100.897 1.01637C100.93 1.08208 100.661 1.13533 100.237 1.14674C99.5816 1.16436 99.5094 1.14262 99.3962 0.893585C99.2741 0.625067 98.855 0.507315 98.855 0.741514C98.855 0.807729 98.9055 0.830636 98.9672 0.792448C99.0304 0.753252 99.0511 0.796774 99.0145 0.892218C98.9766 0.991095 98.8751 1.03277 98.7703 0.992463C98.6537 0.947638 98.619 0.96887 98.6709 1.05315C98.7622 1.20109 98.3852 1.31033 97.9476 1.26275C97.7917 1.24581 97.5709 1.27739 97.457 1.33295C97.2714 1.42347 97.2639 1.40767 97.3851 1.18082ZM100.488 0.75375C100.52 0.701658 100.474 0.659037 100.386 0.659037C100.298 0.659037 100.252 0.701658 100.285 0.75375C100.317 0.80584 100.362 0.848465 100.386 0.848465C100.41 0.848465 100.456 0.80584 100.488 0.75375ZM95.8572 1.20236C95.823 1.14695 95.8968 1.07497 96.0211 1.04239C96.1716 1.00294 96.224 0.92271 96.1778 0.802162C96.1397 0.702603 96.1565 0.621146 96.2152 0.621146C96.3707 0.621146 96.3456 0.992422 96.1787 1.15967C96.0094 1.32932 95.9411 1.33839 95.8572 1.20236ZM96.5527 0.88635C96.5846 0.802996 96.6254 0.734801 96.6432 0.734801C96.661 0.734801 96.7018 0.802996 96.7337 0.88635C96.7656 0.969704 96.7249 1.0379 96.6432 1.0379C96.5615 1.0379 96.5208 0.969704 96.5527 0.88635ZM96.9902 0.567931C97.1113 0.476153 97.3222 0.399434 97.4589 0.397443C97.7294 0.393428 97.9018 0.56586 97.7323 0.670836C97.6742 0.706794 97.6071 0.677465 97.5832 0.605556C97.5506 0.507364 97.4796 0.507175 97.2974 0.604528C96.9488 0.791513 96.7295 0.765481 96.9902 0.567931ZM95.4829 0.55247C95.5206 0.514702 95.6184 0.510662 95.7003 0.543513C95.7908 0.579792 95.7639 0.606727 95.6318 0.612174C95.5122 0.617095 95.4452 0.590237 95.4829 0.55247ZM101.464 0.507476C101.318 0.413324 101.323 0.39704 101.492 0.395552C101.601 0.394522 101.691 0.444958 101.691 0.507476C101.691 0.646098 101.678 0.646098 101.464 0.507476ZM100.855 0.334364C100.801 0.193117 100.83 0.183388 101.013 0.281529C101.276 0.422534 101.301 0.507476 101.079 0.507476C100.992 0.507476 100.891 0.42957 100.855 0.334364Z" fill="#ffa54c"/>
</svg>
