<?xml version="1.0" standalone="no"?>
<!DOCTYPE svg PUBLIC "-//W3C//DTD SVG 20010904//EN"
 "http://www.w3.org/TR/2001/REC-SVG-20010904/DTD/svg10.dtd">
<svg version="1.0" xmlns="http://www.w3.org/2000/svg"
 width="800.000000pt" height="800.000000pt" viewBox="0 0 800.000000 800.000000"
 preserveAspectRatio="xMidYMid meet">
<metadata>
Created by potrace 1.14, written by Peter Selinger 2001-2017
</metadata>
<g transform="translate(0.000000,800.000000) scale(0.100000,-0.100000)"
fill="#000000" stroke="none">
<path d="M540 7993 c-123 -20 -261 -92 -350 -182 -75 -76 -120 -148 -158 -253
l-27 -73 0 -3485 0 -3485 27 -73 c74 -204 224 -350 428 -419 53 -17 181 -18
3500 -21 3857 -3 3527 -9 3690 71 119 58 220 159 277 277 80 165 74 -177 71
3685 l-3 3450 -23 65 c-62 173 -178 309 -325 379 -160 77 159 71 -3659 70
-1883 -1 -3434 -4 -3448 -6z m6505 -813 c159 -59 284 -177 364 -342 65 -135
86 -229 86 -388 0 -159 -21 -253 -86 -388 -68 -140 -165 -245 -283 -302 -45
-22 -105 -45 -135 -50 -75 -14 -5909 -14 -5982 0 -181 34 -354 190 -442 398
-36 85 -67 242 -67 342 0 146 41 302 118 448 36 68 163 194 234 233 67 36 89
45 153 58 22 5 1381 8 3020 7 2614 -1 2985 -3 3020 -16z m-2095 -2407 c261
-89 444 -284 522 -558 19 -67 22 -103 22 -220 -1 -123 -4 -151 -28 -230 -80
-264 -258 -449 -520 -539 -61 -21 -62 -21 -1896 -24 -1925 -3 -1921 -3 -2040
40 -145 54 -312 192 -389 321 -84 143 -115 261 -115 437 0 143 11 205 58 322
77 189 243 356 431 430 120 48 65 46 2035 45 l1855 -2 65 -22z m-1582 -2483
c265 -43 500 -239 588 -491 56 -159 56 -339 0 -499 -35 -100 -78 -170 -156
-253 -108 -116 -232 -190 -380 -228 -82 -21 -2258 -21 -2340 0 -240 61 -447
242 -530 462 -68 183 -65 376 8 557 41 99 93 172 188 261 109 102 239 167 380
190 74 13 2166 13 2242 1z"/>
</g>
</svg>
