<?xml version="1.0" encoding="UTF-8" standalone="no" ?>
<!DOCTYPE svg PUBLIC "-//W3C//DTD SVG 1.1//EN" "http://www.w3.org/Graphics/SVG/1.1/DTD/svg11.dtd">
<svg xmlns="http://www.w3.org/2000/svg" xmlns:xlink="http://www.w3.org/1999/xlink" version="1.1" width="1080" height="1080" viewBox="0 0 1080 1080" xml:space="preserve">
<desc>Created with Fabric.js 5.2.4</desc>
<defs>
</defs>
<g transform="matrix(1 0 0 1 540 540)" id="f2ac5508-5534-40ad-a655-7c204c76cc7f"  >
<rect style="stroke: none; stroke-width: 1; stroke-dasharray: none; stroke-linecap: butt; stroke-dashoffset: 0; stroke-linejoin: miter; stroke-miterlimit: 4; fill: rgb(255,255,255); fill-rule: nonzero; opacity: 1; visibility: hidden;" vector-effect="non-scaling-stroke"  x="-540" y="-540" rx="0" ry="0" width="1080" height="1080" />
</g>
<g transform="matrix(1 0 0 1 540 540)" id="2cdb683f-3b6f-456c-ba65-b6ec58f9aac1"  >
</g>
<g transform="matrix(1 0 0 1 540 540)"  >
<path style="stroke: none; stroke-width: 1; stroke-dasharray: none; stroke-linecap: butt; stroke-dashoffset: 0; stroke-linejoin: miter; stroke-miterlimit: 4; fill: rgb(255,255,255); fill-rule: nonzero; opacity: 1;" vector-effect="non-scaling-stroke"  transform=" translate(-256, -255.28)" d="M 348.851 128.063 L 279.905 186.36499999999998 L 348.851 186.36499999999998 L 348.851 128.063 z M 264.943 176.772 L 365.87399999999997 91.42299999999999 L 365.87399999999997 186.36499999999998 L 398.11799999999994 186.36499999999998 L 398.11799999999994 329.78599999999994 L 359.38699999999994 329.78599999999994 L 359.38699999999994 419.78999999999996 L 264.94499999999994 333.12799999999993 L 264.94499999999994 417.07399999999996 L 247.92199999999994 417.07399999999996 L 247.92199999999994 333.16799999999995 L 151.32599999999994 419.41399999999993 L 151.32599999999994 329.78599999999994 L 113.88099999999994 329.78599999999994 L 113.88099999999994 186.365 L 152.61299999999994 186.365 L 152.61299999999994 90.768 L 247.92199999999994 175.726 L 247.92199999999994 92.566 L 264.94499999999994 92.566 L 264.9429999999999 176.772 z M 235.73399999999998 203.38799999999998 C 200.779 203.408 165.84099999999998 203.38799999999998 130.904 203.38799999999998 L 130.904 312.763 L 151.319 312.763 L 151.319 285.642 L 235.73399999999998 203.38799999999998 z M 277.179 203.38799999999998 L 359.38699999999994 285.712 L 359.38699999999994 312.763 L 381.0949999999999 312.763 L 381.0949999999999 203.388 C 346.4779999999999 203.388 311.8209999999999 203.40800000000002 277.1789999999999 203.388 z M 234.30499999999998 186.36499999999998 L 169.63599999999997 128.719 L 169.63599999999997 186.365 L 234.30499999999995 186.365 z M 247.92199999999997 310.441 L 247.92199999999997 215.24099999999999 L 168.349 292.757 L 168.349 381.488 L 247.92199999999997 310.44100000000003 z M 265.174 215.41899999999998 L 265.174 310.282 L 342.364 381.11199999999997 C 342.364 351.62699999999995 342.352 322.169 342.352 292.68699999999995 L 265.174 215.41899999999995 z" stroke-linecap="round" />
</g>
<g transform="matrix(NaN NaN NaN NaN 0 0)"  >
<g style=""   >
</g>
</g>
</svg>