<svg width="2858" height="800" viewBox="0 0 2858 800" fill="none" xmlns="http://www.w3.org/2000/svg">
<g clip-path="url(#clip0_203_2)">
<rect width="800" height="800" rx="60" fill="#0042DA"/>
<rect x="650" y="293" width="85.4704" height="384.617" rx="20" transform="rotate(90 650 293)" fill="#FF8E20"/>
<path fill-rule="evenodd" clip-rule="evenodd" d="M192.735 378.47C216.337 378.47 235.47 359.337 235.47 335.735C235.47 312.133 216.337 293 192.735 293C169.133 293 150 312.133 150 335.735C150 359.337 169.133 378.47 192.735 378.47Z" fill="#FF8E20"/>
<rect x="150" y="506.677" width="85.4704" height="384.617" rx="20" transform="rotate(-90 150 506.677)" fill="white"/>
<path fill-rule="evenodd" clip-rule="evenodd" d="M607.265 421.206C583.663 421.206 564.53 440.34 564.53 463.942C564.53 487.544 583.663 506.677 607.265 506.677C630.867 506.677 650 487.544 650 463.942C650 440.34 630.867 421.206 607.265 421.206Z" fill="white"/>
<path d="M1098.5 585V237H1177V585H1098.5ZM988 300.5V232H1287.5V300.5H988ZM1347.58 586L1247.58 342H1330.08L1393.58 535.5H1363.08L1428.08 342H1510.58L1406.58 586H1347.58ZM1285.08 687.5L1358.08 530L1406.58 586L1363.58 687.5H1285.08ZM1673.81 590C1657.48 590 1642.48 586.833 1628.81 580.5C1615.14 574.167 1603.98 565.5 1595.31 554.5C1586.64 543.167 1581.64 530.333 1580.31 516V413.5C1581.64 399.167 1586.64 386.167 1595.31 374.5C1603.98 362.833 1615.14 353.667 1628.81 347C1642.48 340.333 1657.48 337 1673.81 337C1696.81 337 1717.14 342.5 1734.81 353.5C1752.81 364.5 1766.81 379.5 1776.81 398.5C1787.14 417.5 1792.31 439.167 1792.31 463.5C1792.31 487.833 1787.14 509.5 1776.81 528.5C1766.81 547.5 1752.81 562.5 1734.81 573.5C1717.14 584.5 1696.81 590 1673.81 590ZM1659.81 521C1670.81 521 1680.31 518.5 1688.31 513.5C1696.64 508.5 1703.14 501.667 1707.81 493C1712.48 484.333 1714.81 474.5 1714.81 463.5C1714.81 452.167 1712.48 442.167 1707.81 433.5C1703.14 424.833 1696.64 418.167 1688.31 413.5C1680.31 408.5 1670.98 406 1660.31 406C1649.64 406 1640.14 408.5 1631.81 413.5C1623.81 418.167 1617.48 424.833 1612.81 433.5C1608.14 442.167 1605.81 452.167 1605.81 463.5C1605.81 474.5 1607.98 484.333 1612.31 493C1616.98 501.667 1623.48 508.5 1631.81 513.5C1640.14 518.5 1649.48 521 1659.81 521ZM1533.81 687.5V342H1610.31V404.5L1597.81 463.5L1609.31 522.5V687.5H1533.81ZM1951.17 590.5C1924.84 590.5 1901.34 585.167 1880.67 574.5C1860.34 563.5 1844.34 548.333 1832.67 529C1821.01 509.667 1815.17 487.833 1815.17 463.5C1815.17 439.167 1820.84 417.5 1832.17 398.5C1843.84 379.167 1859.51 364 1879.17 353C1898.84 342 1921.01 336.5 1945.67 336.5C1969.67 336.5 1990.84 341.667 2009.17 352C2027.51 362.333 2041.84 376.667 2052.17 395C2062.84 413.333 2068.17 434.333 2068.17 458C2068.17 462.333 2067.84 467 2067.17 472C2066.84 476.667 2066.01 482.167 2064.67 488.5L1855.17 489V436.5L2032.17 436L1999.17 458C1998.84 444 1996.67 432.5 1992.67 423.5C1988.67 414.167 1982.67 407.167 1974.67 402.5C1967.01 397.5 1957.51 395 1946.17 395C1934.17 395 1923.67 397.833 1914.67 403.5C1906.01 408.833 1899.17 416.5 1894.17 426.5C1889.51 436.5 1887.17 448.667 1887.17 463C1887.17 477.333 1889.67 489.667 1894.67 500C1900.01 510 1907.34 517.833 1916.67 523.5C1926.34 528.833 1937.67 531.5 1950.67 531.5C1962.67 531.5 1973.51 529.5 1983.17 525.5C1992.84 521.167 2001.34 514.833 2008.67 506.5L2050.67 548.5C2038.67 562.5 2024.17 573 2007.17 580C1990.17 587 1971.51 590.5 1951.17 590.5ZM2245.1 590C2228.76 590 2213.76 586.667 2200.1 580C2186.43 573 2175.26 563.833 2166.6 552.5C2157.93 540.833 2152.93 527.833 2151.6 513.5V411C2152.93 396.667 2157.93 384 2166.6 373C2175.26 361.667 2186.43 352.833 2200.1 346.5C2213.76 340.167 2228.76 337 2245.1 337C2268.1 337 2288.43 342.5 2306.1 353.5C2324.1 364.5 2338.1 379.5 2348.1 398.5C2358.43 417.5 2363.6 439.167 2363.6 463.5C2363.6 487.833 2358.43 509.5 2348.1 528.5C2338.1 547.5 2324.1 562.5 2306.1 573.5C2288.43 584.5 2268.1 590 2245.1 590ZM2231.6 521C2242.26 521 2251.6 518.5 2259.6 513.5C2267.93 508.5 2274.43 501.667 2279.1 493C2283.76 484.333 2286.1 474.5 2286.1 463.5C2286.1 452.167 2283.76 442.167 2279.1 433.5C2274.43 424.833 2267.93 418.167 2259.6 413.5C2251.6 408.5 2242.26 406 2231.6 406C2220.93 406 2211.43 408.5 2203.1 413.5C2194.76 418.167 2188.26 424.833 2183.6 433.5C2179.26 442.167 2177.1 452.167 2177.1 463.5C2177.1 474.833 2179.43 484.833 2184.1 493.5C2188.76 502.167 2195.1 509 2203.1 514C2211.43 518.667 2220.93 521 2231.6 521ZM2105.1 585V222H2181.6V401.5L2169.1 460.5L2180.6 519.5V585H2105.1ZM2519.46 590.5C2494.46 590.5 2471.79 585 2451.46 574C2431.46 562.667 2415.63 547.333 2403.96 528C2392.29 508.667 2386.46 487 2386.46 463C2386.46 439 2392.29 417.5 2403.96 398.5C2415.63 379.5 2431.46 364.5 2451.46 353.5C2471.46 342.167 2494.13 336.5 2519.46 336.5C2544.79 336.5 2567.46 342 2587.46 353C2607.46 364 2623.29 379.167 2634.96 398.5C2646.63 417.5 2652.46 439 2652.46 463C2652.46 487 2646.63 508.667 2634.96 528C2623.29 547.333 2607.46 562.667 2587.46 574C2567.46 585 2544.79 590.5 2519.46 590.5ZM2519.46 521C2530.46 521 2540.13 518.667 2548.46 514C2556.79 509 2563.13 502.167 2567.46 493.5C2572.13 484.5 2574.46 474.333 2574.46 463C2574.46 451.667 2572.13 441.833 2567.46 433.5C2562.79 424.833 2556.29 418.167 2547.96 413.5C2539.96 408.5 2530.46 406 2519.46 406C2508.79 406 2499.29 408.5 2490.96 413.5C2482.63 418.167 2476.13 424.833 2471.46 433.5C2466.79 442.167 2464.46 452.167 2464.46 463.5C2464.46 474.5 2466.79 484.5 2471.46 493.5C2476.13 502.167 2482.63 509 2490.96 514C2499.29 518.667 2508.79 521 2519.46 521ZM2720.16 585V241.5H2796.66V585H2720.16ZM2665.16 407V342H2851.66V407H2665.16Z" fill="black"/>
</g>
<defs>
<clipPath id="clip0_203_2">
<rect width="2858" height="800" fill="white"/>
</clipPath>
</defs>
</svg>
