<svg
  width="1034"
  height="238"
  viewBox="0 0 1034 238"
  fill="none"
  xmlns="http://www.w3.org/2000/svg"
>
  <path
    d="M1033.96 167.61V188.507C1025.43 191.066 1019.04 191.705 1012.43 191.705C989.823 191.705 978.735 182.11 978.735 160.36V101.293H963.809V81.6757H978.735V54.5947H1005.82V81.6757H1031.62V101.293H1005.6V156.095C1005.6 166.33 1010.51 169.742 1019.68 169.742C1023.73 169.742 1027.99 169.316 1033.96 167.61Z"
    fill="#171717"
  />
  <path
    d="M957.281 135.837C957.281 171.021 934.465 192.558 902.479 192.558C870.494 192.558 847.678 171.021 847.678 135.837C847.678 100.866 870.494 79.1162 902.479 79.1162C934.465 79.1162 957.281 100.866 957.281 135.837ZM874.972 135.837C874.972 158.653 884.781 172.3 902.479 172.3C919.965 172.3 929.987 158.653 929.987 135.837C929.987 113.234 919.965 99.3736 902.479 99.3736C884.781 99.3736 874.972 113.234 874.972 135.837Z"
    fill="#171717"
  />
  <path
    d="M752.842 172.727V189.999H725.975V33.0576H753.269V99.374C758.386 88.499 770.754 79.1166 787.6 79.1166C815.96 79.1166 835.365 102.359 835.365 135.837C835.365 169.529 815.96 192.558 787.6 192.558C771.181 192.558 758.173 183.602 752.842 172.727ZM752.629 133.918V137.757C752.629 158.867 762.651 172.514 779.923 172.514C797.622 172.514 807.857 158.227 807.857 135.837C807.857 113.661 797.622 99.1608 779.923 99.1608C762.651 99.1608 752.629 112.808 752.629 133.918Z"
    fill="#171717"
  />
  <path
    d="M705.889 156.308C701.197 179.55 681.793 192.558 657.057 192.558C625.499 192.558 602.256 171.447 602.256 136.05C602.256 100.653 625.925 79.1162 656.418 79.1162C690.322 79.1162 706.528 104.918 706.528 133.705V142.447H628.697C630.403 161.639 640.212 172.514 657.057 172.514C669.425 172.514 677.102 166.756 680.727 156.308H705.889ZM656.418 99.3736C642.131 99.3736 632.535 108.116 629.55 124.749H680.513C680.513 111.315 672.837 99.3736 656.418 99.3736Z"
    fill="#171717"
  />
  <path
    d="M507.847 172.727V227.955H480.553V81.675H507.42V99.5869C512.538 88.7118 525.332 79.1162 542.178 79.1162C570.538 79.1162 589.943 102.359 589.943 135.837C589.943 169.528 570.538 192.558 542.178 192.558C525.759 192.558 513.391 183.602 507.847 172.727ZM507.207 133.918V137.756C507.207 158.866 517.229 172.514 534.501 172.514C552.2 172.514 562.435 158.227 562.435 135.837C562.435 113.66 552.2 99.1604 534.501 99.1604C517.229 99.1604 507.207 112.807 507.207 133.918Z"
    fill="#171717"
  />
  <path
    d="M394.359 189.786L352.139 81.6758H379.859L409.926 163.345H410.352L438.926 81.6758H466.007L423.786 191.919C413.551 219 400.97 229.448 378.153 229.662C374.528 229.662 369.411 229.235 365.573 228.595V207.911C368.771 208.551 370.477 208.551 372.823 208.551C383.911 208.551 388.602 204.713 394.359 189.786Z"
    fill="#171717"
  />
  <path
    d="M345.385 167.61V188.507C336.856 191.066 330.459 191.705 323.848 191.705C301.245 191.705 290.157 182.11 290.157 160.36V101.293H275.23V81.6757H290.157V54.5947H317.238V81.6757H343.04V101.293H317.025V156.095C317.025 166.33 321.929 169.742 331.098 169.742C335.15 169.742 339.414 169.316 345.385 167.61Z"
    fill="#171717"
  />
  <path
    d="M183.977 20.8186C179.176 8.70294 167.355 0.138672 153.528 0.138672H32.7578C14.6675 0.138672 0 14.8062 0 32.8964V193.043C0 202.228 3.77858 210.527 9.86671 216.472C14.6751 228.587 26.503 237.152 40.3301 237.152H161.101C179.191 237.152 193.851 222.492 193.851 204.401V44.2549C193.851 35.0697 190.072 26.7629 183.977 20.8186ZM167.348 193.043C167.348 200.661 161.146 206.862 153.528 206.862H32.7578C30.5239 206.862 28.4113 206.332 26.5409 205.378C22.0278 203.107 18.9308 198.427 18.9308 193.043V32.8964C18.9308 25.2711 25.1325 19.0694 32.7578 19.0694H153.528C160.813 19.0694 166.803 24.7411 167.31 31.912C167.333 32.2377 167.348 32.5633 167.348 32.8964V193.043Z"
    fill="#171717"
  />
  <path
    d="M84.7576 37.9358L75.3465 39.5952C72.7971 40.0448 71.0949 42.4759 71.5444 45.0252L96.0834 184.193C96.5329 186.742 98.964 188.444 101.513 187.995L110.924 186.335C113.474 185.886 115.176 183.455 114.727 180.905L90.1876 41.7379C89.738 39.1886 87.3069 37.4863 84.7576 37.9358Z"
    fill="#171717"
  />
</svg>
