<svg width="23" height="28" viewBox="0 0 23 28" fill="none" xmlns="http://www.w3.org/2000/svg">
<path d="M21.3177 2.39623C20.7614 0.992359 19.3918 0 17.7896 0H3.79571C1.69956 0 0 1.69956 0 3.79571V22.3522C0 23.4165 0.437831 24.3782 1.14327 25.0669C1.70043 26.4708 3.07096 27.4632 4.67312 27.4632H18.667C20.7632 27.4632 22.4619 25.7645 22.4619 23.6683V5.11183C22.4619 4.04752 22.024 3.085 21.3177 2.39623ZM19.3909 22.3522C19.3909 23.2349 18.6723 23.9535 17.7896 23.9535H3.79571C3.53687 23.9535 3.29207 23.8921 3.07535 23.7815C2.55241 23.5183 2.19354 22.976 2.19354 22.3522V3.79571C2.19354 2.91215 2.91215 2.19354 3.79571 2.19354H17.7896C18.6337 2.19354 19.3277 2.85073 19.3865 3.68164C19.3892 3.71937 19.3909 3.7571 19.3909 3.79571V22.3522Z" fill="#F1F1F1"/>
<path d="M9.82066 4.37955L8.73018 4.57183C8.43478 4.62391 8.23754 4.90561 8.28962 5.20101L11.133 21.3266C11.1851 21.622 11.4668 21.8192 11.7622 21.7672L12.8527 21.5749C13.1481 21.5228 13.3453 21.2411 13.2932 20.9457L10.4498 4.8201C10.3978 4.5247 10.1161 4.32746 9.82066 4.37955Z" fill="#F1F1F1"/>
</svg>
