<svg width="393" height="882" viewBox="0 0 393 882" fill="none" xmlns="http://www.w3.org/2000/svg">
<g clip-path="url(#clip0_873_437)">
<rect width="393" height="882" fill="#F1F1F1"/>
<g filter="url(#filter0_f_873_437)">
<ellipse cx="4.31273" cy="88.9881" rx="197.313" ry="291.189" fill="#FF5924"/>
</g>
<g filter="url(#filter1_f_873_437)">
<ellipse cx="304.961" cy="-34.6085" rx="182.634" ry="269.526" fill="#9D84FE"/>
</g>
<g style="mix-blend-mode:plus-lighter" filter="url(#filter2_f_873_437)">
<path d="M-7.6145 -149.159L-56.2504 -41.7015C-69.4255 -12.5923 -75.1951 15.8462 -69.1372 21.8177L261.557 347.795C267.615 353.767 283.206 335.01 296.381 305.901L345.017 198.443C358.192 169.334 363.962 140.896 357.904 134.924L27.2098 -191.053C21.1519 -197.025 5.56054 -178.268 -7.6145 -149.159Z" fill="url(#paint0_angular_873_437)" fill-opacity="0.6"/>
</g>
</g>
<defs>
<filter id="filter0_f_873_437" x="-344.569" y="-353.77" width="697.763" height="885.515" filterUnits="userSpaceOnUse" color-interpolation-filters="sRGB">
<feFlood flood-opacity="0" result="BackgroundImageFix"/>
<feBlend mode="normal" in="SourceGraphic" in2="BackgroundImageFix" result="shape"/>
<feGaussianBlur stdDeviation="75.7845" result="effect1_foregroundBlur_873_437"/>
</filter>
<filter id="filter1_f_873_437" x="-22.4144" y="-448.876" width="654.751" height="828.535" filterUnits="userSpaceOnUse" color-interpolation-filters="sRGB">
<feFlood flood-opacity="0" result="BackgroundImageFix"/>
<feBlend mode="normal" in="SourceGraphic" in2="BackgroundImageFix" result="shape"/>
<feGaussianBlur stdDeviation="72.3708" result="effect1_foregroundBlur_873_437"/>
</filter>
<filter id="filter2_f_873_437" x="-181.956" y="-302.572" width="652.678" height="761.887" filterUnits="userSpaceOnUse" color-interpolation-filters="sRGB">
<feFlood flood-opacity="0" result="BackgroundImageFix"/>
<feBlend mode="normal" in="SourceGraphic" in2="BackgroundImageFix" result="shape"/>
<feGaussianBlur stdDeviation="55.2055" result="effect1_foregroundBlur_873_437"/>
</filter>
<radialGradient id="paint0_angular_873_437" cx="0" cy="0" r="1" gradientUnits="userSpaceOnUse" gradientTransform="translate(144.383 78.371) rotate(44.5885) scale(247.576 213.117)">
<stop stop-color="#FF5924"/>
<stop offset="0.43" stop-color="#FFD79A"/>
<stop offset="0.711143" stop-color="#8F00FF"/>
</radialGradient>
<clipPath id="clip0_873_437">
<rect width="393" height="882" fill="white"/>
</clipPath>
</defs>
</svg>
