<svg width="92" height="41" viewBox="0 0 92 41" fill="none" xmlns="http://www.w3.org/2000/svg">
<path d="M11.3614 19.9691C10.7768 21.0586 10.1524 22.0949 9.48804 23.0781C8.85031 24.0347 8.186 24.8717 7.49512 25.5891C6.80424 26.3066 6.11336 26.8779 5.42248 27.303C4.7316 27.7016 4.04072 27.9009 3.34984 27.9009C2.47296 27.9009 1.63593 27.4891 0.838761 26.6653C0.25417 26.0276 -0.0248393 25.0975 0.00173298 23.8752C0.00173298 22.6529 0.201025 21.2578 0.59961 19.6901C0.998194 18.1223 1.51635 16.4483 2.15409 14.6679C2.79182 12.861 3.44285 11.0807 4.10715 9.32689C4.79803 7.54654 5.43577 5.84592 6.02036 4.22501C6.60495 2.6041 7.03011 1.19577 7.29583 1.23525e-05C8.01328 0.239163 8.65102 0.504887 9.20903 0.797183C9.68734 1.03633 10.1258 1.31534 10.5244 1.63421C10.9229 1.95308 11.1222 2.29852 11.1222 2.67053C11.1222 2.85653 11.0027 3.32155 10.7635 4.06557C10.5244 4.8096 10.2055 5.72634 9.80691 6.81581C9.4349 7.90527 9.00974 9.1276 8.53144 10.4828C8.05314 11.8114 7.57484 13.1533 7.09654 14.5085C6.64481 15.8637 6.20637 17.1923 5.78121 18.4943C5.35605 19.7698 5.01061 20.9124 4.74489 21.9222C4.50574 22.9053 4.3463 23.7025 4.26659 24.3137C4.21344 24.9248 4.30645 25.2304 4.5456 25.2304C4.86446 25.2304 5.23648 25.071 5.66163 24.7521C6.08679 24.4332 6.52523 23.9948 6.97696 23.4368C7.45526 22.8788 7.93357 22.2277 8.41187 21.4837C8.89017 20.7397 9.35518 19.9425 9.80691 19.0922C10.1789 18.6405 10.5377 18.4146 10.8831 18.4146C11.1754 18.4146 11.3747 18.5608 11.481 18.8531C11.5873 19.1454 11.5474 19.5174 11.3614 19.9691Z" fill="#202020"/>
<path d="M17.3644 8.56958C18.3211 8.14442 19.1979 7.93184 19.9951 7.93184C20.9783 7.93184 21.7489 8.21085 22.3069 8.76887C22.8915 9.30032 23.2635 9.97791 23.4229 10.8017C23.6089 11.6254 23.5558 12.5156 23.2635 13.4722C22.9978 14.4288 22.4929 15.3189 21.7489 16.1427C21.0314 16.9399 20.0483 17.6174 18.7994 18.1755C17.577 18.7069 16.1023 18.9593 14.3751 18.9328C14.1093 19.7299 13.91 20.5138 13.7772 21.2844C13.6709 22.055 13.6709 22.7459 13.7772 23.3571C13.8835 23.9682 14.1093 24.4864 14.4548 24.9115C14.8002 25.3101 15.3051 25.5493 15.9694 25.629C16.8463 25.7353 17.7099 25.5758 18.5602 25.1507C19.4105 24.699 20.1944 24.1277 20.9118 23.4368C21.6293 22.7459 22.267 22.0019 22.8251 21.2047C23.4096 20.381 23.8614 19.6768 24.1802 19.0922C24.5523 18.6405 24.911 18.4146 25.2564 18.4146C25.5487 18.4146 25.748 18.5608 25.8543 18.8531C25.9606 19.1454 25.9207 19.5174 25.7347 19.9691C24.2201 22.8389 22.5859 24.9115 20.8321 26.187C19.1049 27.4359 17.4707 28.0604 15.9295 28.0604C15.0527 28.0604 14.2289 27.8743 13.4583 27.5023C12.7143 27.1038 12.0633 26.559 11.5053 25.8681C10.7612 24.9381 10.2564 23.9284 9.99063 22.8389C9.72491 21.7494 9.64519 20.6334 9.75148 19.4908C9.85777 18.3482 10.1235 17.2189 10.5487 16.1028C11.0004 14.9868 11.5584 13.9372 12.2227 12.954C12.9136 11.9708 13.6975 11.1072 14.5744 10.3632C15.4512 9.59261 16.3813 8.99474 17.3644 8.56958ZM15.0527 17.2986C16.5673 17.2454 17.7763 16.9133 18.6798 16.3021C19.6098 15.6644 20.2608 14.9735 20.6328 14.2295C21.0049 13.4855 21.1377 12.8211 21.0314 12.2366C20.9251 11.6254 20.6063 11.3198 20.0748 11.3198C19.7294 11.3198 19.3308 11.4925 18.8791 11.838C18.4539 12.1568 18.0155 12.5953 17.5637 13.1533C17.112 13.6847 16.6603 14.3092 16.2086 15.0266C15.7834 15.7441 15.3981 16.5014 15.0527 17.2986Z" fill="#202020"/>
<path d="M44.4016 19.9691C43.817 21.0586 43.1925 22.0949 42.5282 23.0781C41.8905 24.0347 41.2262 24.8717 40.5353 25.5891C39.8444 26.3066 39.1535 26.8779 38.4626 27.303C37.7718 27.7016 37.0809 27.9009 36.39 27.9009C35.9383 27.9009 35.5131 27.8079 35.1145 27.6219C34.716 27.4093 34.3572 27.1436 34.0384 26.8247C33.7195 26.5059 33.4538 26.1472 33.2412 25.7486C33.0552 25.3234 32.9356 24.8983 32.8825 24.4731C32.2182 25.5094 31.5539 26.3464 30.8895 26.9842C30.2252 27.5953 29.5476 27.9009 28.8568 27.9009C28.0862 27.9009 27.3421 27.7813 26.6247 27.5422C25.9338 27.2765 25.3226 26.9045 24.7912 26.4262C24.2863 25.9479 23.901 25.3633 23.6353 24.6724C23.3696 23.9815 23.2899 23.1843 23.3962 22.2809C23.5024 21.3509 23.7416 20.3012 24.1136 19.1321C24.4856 17.9363 24.9506 16.7538 25.5087 15.5847C26.0667 14.3889 26.7044 13.2596 27.4219 12.1967C28.1393 11.1338 28.87 10.2436 29.6141 9.52618C30.2252 8.94159 30.8497 8.52972 31.4874 8.29057C32.1517 8.05142 32.7895 7.93184 33.4006 7.93184C34.3307 7.93184 35.1544 8.17099 35.8718 8.6493C36.6159 9.10102 37.0942 9.63247 37.3068 10.2436C37.9711 10.4828 38.5689 10.7485 39.1004 11.0408C39.5521 11.28 39.9507 11.559 40.2961 11.8778C40.6681 12.1967 40.8542 12.5421 40.8542 12.9141C40.8542 13.1533 40.7346 13.6316 40.4954 14.3491C40.2563 15.0399 39.964 15.8504 39.6185 16.7804C39.2997 17.6839 38.9542 18.6405 38.5822 19.6502C38.2368 20.6334 37.9445 21.5369 37.7053 22.3606C37.4662 23.1843 37.32 23.8752 37.2669 24.4332C37.2137 24.9647 37.32 25.2304 37.5858 25.2304C37.9046 25.2304 38.2766 25.071 38.7018 24.7521C39.127 24.4332 39.5654 23.9948 40.0171 23.4368C40.4954 22.8788 40.9737 22.2277 41.452 21.4837C41.9303 20.7397 42.3953 19.9425 42.8471 19.0922C43.2191 18.6405 43.5778 18.4146 43.9233 18.4146C44.2156 18.4146 44.4148 18.5608 44.5211 18.8531C44.6274 19.1454 44.5876 19.5174 44.4016 19.9691ZM27.661 25.0311C27.7142 25.4828 27.8337 25.815 28.0197 26.0276C28.2323 26.2136 28.5379 26.2402 28.9365 26.1073C29.3085 25.9744 29.7204 25.629 30.1721 25.071C30.6504 24.513 31.142 23.8221 31.6469 22.9983C32.1517 22.148 32.6566 21.2313 33.1615 20.2481C33.6929 19.2384 34.1845 18.2552 34.6362 17.2986C35.4334 15.1994 35.7788 13.698 35.6726 12.7946C35.5928 11.8911 35.2341 11.4394 34.5964 11.4394C34.0915 11.4394 33.5601 11.6918 33.002 12.1967C32.444 12.7016 31.886 13.3659 31.328 14.1896C30.7965 14.9868 30.2917 15.9035 29.8134 16.9399C29.3351 17.9496 28.9232 18.9593 28.5778 19.9691C28.2589 20.9523 28.0064 21.8956 27.8204 22.799C27.661 23.7025 27.6079 24.4465 27.661 25.0311Z" fill="#202020"/>
<path d="M63.4847 19.9691C62.9001 21.0586 62.2757 22.0949 61.6114 23.0781C60.9736 24.0347 60.3093 24.8717 59.6185 25.5891C58.9276 26.3066 58.2367 26.8779 57.5458 27.303C56.8549 27.7016 56.1641 27.9009 55.4732 27.9009C54.5963 27.9009 53.7593 27.4891 52.9621 26.6653C52.3509 26.0276 52.0719 25.0178 52.1251 23.6361C51.3545 24.9115 50.5972 25.9479 49.8531 26.745C49.1091 27.5156 48.3518 27.9009 47.5812 27.9009C46.8106 27.9009 46.0666 27.7813 45.3491 27.5422C44.6583 27.2765 44.0471 26.9045 43.5156 26.4262C43.0108 25.9479 42.6255 25.3633 42.3597 24.6724C42.094 23.9815 42.0143 23.1843 42.1206 22.2809C42.2269 21.3509 42.466 20.3012 42.838 19.1321C43.2101 17.9363 43.6751 16.7538 44.2331 15.5847C44.7911 14.3889 45.4288 13.2596 46.1463 12.1967C46.8638 11.1338 47.5945 10.2436 48.3385 9.52618C48.9497 8.94159 49.5741 8.52972 50.2119 8.29057C50.8762 8.05142 51.5139 7.93184 52.1251 7.93184C53.0285 7.93184 53.8257 8.14442 54.5166 8.56958C55.234 8.96816 55.7123 9.47304 55.9515 10.0842C56.6955 8.17099 57.3864 6.3375 58.0241 4.58373C58.6619 2.82996 59.1269 1.30206 59.4192 1.23525e-05C60.1366 0.239163 60.7744 0.504887 61.3324 0.797183C61.8107 1.03633 62.2491 1.31534 62.6477 1.63421C63.0463 1.95308 63.2456 2.29852 63.2456 2.67053C63.2456 2.85653 63.126 3.32155 62.8868 4.06557C62.6477 4.8096 62.3288 5.72634 61.9302 6.81581C61.5582 7.90527 61.1331 9.1276 60.6548 10.4828C60.1765 11.8114 59.6982 13.1533 59.2199 14.5085C58.7681 15.8637 58.3297 17.1923 57.9045 18.4943C57.4794 19.7698 57.1339 20.9124 56.8682 21.9222C56.6291 22.9053 56.4696 23.7025 56.3899 24.3137C56.3368 24.9248 56.4298 25.2304 56.6689 25.2304C56.9878 25.2304 57.3598 25.071 57.785 24.7521C58.2101 24.4332 58.6486 23.9948 59.1003 23.4368C59.5786 22.8788 60.0569 22.2277 60.5352 21.4837C61.0135 20.7397 61.4785 19.9425 61.9302 19.0922C62.3023 18.6405 62.661 18.4146 63.0064 18.4146C63.2987 18.4146 63.498 18.5608 63.6043 18.8531C63.7106 19.1454 63.6707 19.5174 63.4847 19.9691ZM46.3854 25.0311C46.4386 25.4828 46.5582 25.815 46.7442 26.0276C46.9568 26.2136 47.2623 26.2402 47.6609 26.1073C48.0329 25.9744 48.4448 25.629 48.8965 25.071C49.3748 24.513 49.8664 23.8221 50.3713 22.9983C50.8762 22.148 51.381 21.2313 51.8859 20.2481C52.4174 19.2384 52.909 18.2552 53.3607 17.2986L53.5998 16.7007C53.653 16.4881 53.7061 16.2888 53.7593 16.1028C53.839 15.8902 53.9187 15.6777 53.9984 15.4651C54.4236 14.0302 54.5431 13.0072 54.3571 12.396C54.1977 11.7583 53.8523 11.4394 53.3208 11.4394C52.8159 11.4394 52.2845 11.6918 51.7265 12.1967C51.1685 12.7016 50.6104 13.3659 50.0524 14.1896C49.521 14.9868 49.0161 15.9035 48.5378 16.9399C48.0595 17.9496 47.6476 18.9593 47.3022 19.9691C46.9833 20.9523 46.7309 21.8956 46.5449 22.799C46.3589 23.7025 46.3057 24.4465 46.3854 25.0311Z" fill="#202020"/>
<path d="M68.8349 24.3137C69.1006 25.35 69.2468 26.3863 69.2734 27.4226C69.2999 28.4589 69.2202 29.4554 69.0342 30.412C68.8748 31.3686 68.6223 32.2721 68.2769 33.1224C67.9315 33.9727 67.5063 34.73 67.0014 35.3943C66.284 36.3775 65.4868 37.1082 64.6099 37.5865C63.7596 38.0648 62.9226 38.304 62.0988 38.304C61.4877 38.304 60.9164 38.1578 60.3849 37.8655C59.8535 37.5998 59.415 37.1879 59.0696 36.6299C58.6976 36.0719 58.4451 35.381 58.3123 34.5573C58.1794 33.7335 58.206 32.7769 58.392 31.6875C58.6046 30.226 58.9766 28.5652 59.508 26.7052C60.0395 24.8451 60.6506 22.9053 61.3415 20.8858C62.0324 18.8663 62.7499 16.8203 63.4939 14.7476C64.2645 12.675 64.9819 10.7086 65.6462 8.84858C66.3371 6.98851 66.935 5.28789 67.4399 3.74669C67.9713 2.2055 68.3433 0.956603 68.5559 0C69.2734 0.239151 69.9111 0.504874 70.4691 0.79717C70.9474 1.03632 71.3858 1.31533 71.7844 1.6342C72.183 1.95306 72.3823 2.2985 72.3823 2.67052C72.3823 2.85652 72.2096 3.46768 71.8642 4.50401C71.5453 5.51375 70.5248 7.2011 69.9668 8.76887C69.4354 10.3366 68.9629 11.6593 68.272 13.599C67.6077 15.5122 67.3734 17.4846 66.6826 19.4509C67.028 19.9558 67.3203 20.4607 67.5594 20.9655C67.8252 21.4704 68.0643 21.9886 68.2769 22.52C68.7818 22.1746 69.2734 21.7229 69.7517 21.1648C70.23 20.6068 70.695 19.9159 71.1467 19.0922C71.4656 18.5342 71.8376 18.2552 72.2627 18.2552C72.555 18.2552 72.7676 18.4146 72.9005 18.7335C73.0599 19.0258 72.9935 19.4376 72.7012 19.9691C71.6117 21.9089 70.323 23.357 68.8349 24.3137ZM65.3274 23.5563C65.7791 23.5032 66.2441 23.4235 66.7224 23.3172C66.4833 22.6795 66.2441 22.0816 66.005 21.5236C65.8721 21.869 65.7525 22.2144 65.6462 22.5599C65.5399 22.8787 65.4337 23.2109 65.3274 23.5563ZM64.6896 25.4297C64.3176 26.6254 63.9589 27.7415 63.6135 28.7778C63.2946 29.8407 63.0289 30.784 62.8163 31.6077C62.4443 32.9629 62.3646 33.9461 62.5771 34.5573C62.7897 35.195 63.1352 35.5139 63.6135 35.5139C64.012 35.5139 64.4505 35.3146 64.9288 34.916C65.4337 34.5174 65.8854 33.9594 66.284 33.2419C66.9217 32.1259 67.2937 30.8371 67.4 29.3757C67.5329 27.9142 67.4531 26.4793 67.1609 25.071C66.3637 25.3633 65.5399 25.4828 64.6896 25.4297Z" fill="#202020"/>
<path d="M79.5859 27.5422C80.1971 25.8947 80.7817 24.1941 81.3397 22.4403C81.9243 20.66 82.469 18.8929 82.9739 17.1391C82.2033 18.6006 81.4061 20.0488 80.5824 21.4837C79.7586 22.9186 78.9614 24.1941 78.1908 25.3101C77.5265 26.2136 76.8622 26.8646 76.1979 27.2632C75.5336 27.6618 74.8959 27.8611 74.2847 27.8611C73.7267 27.8611 73.2085 27.7016 72.7302 27.3828C72.2519 27.0639 71.8534 26.6122 71.5345 26.0276C71.2156 25.443 71.0031 24.7654 70.8968 23.9948C70.7905 23.1976 70.817 22.334 70.9765 21.404C71.1625 20.288 71.4415 19.1188 71.8135 17.8965C72.1855 16.6741 72.5841 15.4784 73.0093 14.3092C73.461 13.1134 73.8994 11.9708 74.3246 10.8814C74.7497 9.7919 75.1085 8.82201 75.4008 7.9717C76.1448 8.21085 76.8091 8.47657 77.3937 8.76887C77.8986 9.00802 78.337 9.28703 78.709 9.6059C79.1076 9.92477 79.2803 10.2702 79.2272 10.6422C79.2006 10.8548 79.0677 11.2667 78.8286 11.8778C78.616 12.4624 78.3503 13.1666 78.0314 13.9903C77.7126 14.8141 77.3804 15.7175 77.035 16.7007C76.6895 17.6839 76.3707 18.6803 76.0784 19.6901C75.8126 20.6733 75.6133 21.6299 75.4805 22.5599C75.3476 23.4899 75.321 24.327 75.4008 25.071C75.4273 25.2836 75.5071 25.3898 75.6399 25.3898C75.8791 25.3898 76.2378 25.0444 76.7161 24.3535C77.221 23.6626 77.779 22.7725 78.3902 21.683C79.0279 20.5935 79.6922 19.3845 80.3831 18.0559C81.1005 16.7273 81.7781 15.4252 82.4159 14.1498C83.0536 12.8477 83.6249 11.652 84.1298 10.5625C84.6612 9.44646 85.0465 8.58286 85.2857 7.9717C86.0031 8.21085 86.6408 8.47657 87.1989 8.76887C87.6772 9.00802 88.1156 9.28703 88.5142 9.6059C88.9128 9.92477 89.1121 10.2702 89.1121 10.6422C89.1121 11.0408 89.0324 11.7051 88.8729 12.6351C88.7135 13.5386 88.4743 14.6281 88.1555 15.9035C87.8632 17.1524 87.4912 18.5342 87.0394 20.0488C86.5877 21.5634 86.0828 23.1179 85.5248 24.7122C86.4283 24.1011 87.252 23.3571 87.996 22.4802C88.7666 21.6033 89.5239 20.474 90.268 19.0922C90.64 18.6405 90.9987 18.4146 91.3441 18.4146C91.6364 18.4146 91.8357 18.5608 91.942 18.8531C92.0483 19.1454 92.0084 19.5174 91.8224 19.9691C90.8924 21.8823 89.7764 23.4368 88.4743 24.6325C87.1989 25.8017 85.857 26.7716 84.4486 27.5422C84.1563 28.2596 83.7976 29.0834 83.3725 30.0134C82.9473 30.97 82.469 31.9399 81.9375 32.9231C81.4061 33.9063 80.8082 34.8762 80.1439 35.8328C79.5062 36.8159 78.802 37.6795 78.0314 38.4236C77.2608 39.1676 76.4504 39.7655 75.6001 40.2172C74.7497 40.6955 73.8463 40.9346 72.8897 40.9346C72.0659 40.9346 71.3352 40.7353 70.6975 40.3368C70.0332 39.9647 69.5283 39.4599 69.1828 38.8221C68.8374 38.211 68.6647 37.4935 68.6647 36.6698C68.6647 35.8726 68.8905 35.0356 69.3423 34.1587C69.794 33.3084 70.5115 32.4581 71.4946 31.6078C72.4778 30.7574 73.7799 29.9736 75.4008 29.2561C76.1714 28.9107 76.9021 28.5918 77.593 28.2995C78.3104 28.0338 78.9747 27.7813 79.5859 27.5422ZM78.5496 30.133C77.8321 30.4253 77.1413 30.7309 76.4769 31.0497C75.8392 31.3686 75.2679 31.714 74.763 32.0861C74.2581 32.4846 73.8197 32.9231 73.4477 33.4014C73.1023 33.8797 72.8631 34.4377 72.7302 35.0754C72.5974 35.66 72.624 36.125 72.81 36.4705C73.0225 36.8425 73.3148 37.0285 73.6869 37.0285C74.1652 37.0285 74.6567 36.7362 75.1616 36.1516C75.6931 35.567 76.1846 34.8762 76.6364 34.079C77.0881 33.3084 77.4867 32.5378 77.8321 31.7672C78.1776 31.0232 78.4167 30.4784 78.5496 30.133Z" fill="#202020"/>
<path fill-rule="evenodd" clip-rule="evenodd" d="M70.8324 2.72251C70.1127 2.11403 69.1844 1.75645 68.272 1.59528L68.606 0C69.7566 0.20324 71.0122 0.666597 72.0302 1.52729C73.064 2.40142 73.808 3.64946 73.9655 5.32713C74.2738 8.61164 72.3327 13.464 66.262 20.5769L64.8701 19.5746C70.8918 12.5192 72.4503 8.09692 72.2034 5.46666C72.0833 4.18693 71.5361 3.31755 70.8324 2.72251Z" fill="#202020"/>
</svg>
